<svg viewBox="0 0 33 33" fill="none" xmlns="http://www.w3.org/2000/svg"><path d="M30.227 11.503c-.02-.146-.073-.74-.156-1.781l-.125-1.813.5.813c.312.5.573.916.78 1.25a2.365 2.365 0 01-.405.875 4.78 4.78 0 01-.594.656zm-6.656-.063c2.104 0 4.208.01 6.312.032l-.312-5-5.688-2.438-.656-.594H18.57l-1.032-.062c-.416 0-.718.031-.906.094l-.594.75-4.187 1.718v5.813h4.75l1.781.969.344.969h3.687l1.157-2.25zm-3.532 2.032h-.312v-1.063h.312v1.063zm.532.031h-.313v-1.094h.313v1.094zm.625 0h-.313v-1.094h.313v1.094zm.625-.031h-.313v-1.063h.313v1.063zm2.937 5.125c-.062.333-.125.656-.187.968l-.125.063a1.307 1.307 0 00-.47-.875 1.272 1.272 0 00-.937-.375 1.37 1.37 0 00-.906.313h-.187l.625-1.907.218-.812a3.13 3.13 0 01.313-.75l.344-.281c.229.083.468.166.718.25.271.062.48.177.625.343l.47 1.25a22.994 22.994 0 00-.5 1.813zm.281 7.531a2.46 2.46 0 01-.375.094c-.104-.042-.208-.157-.312-.344l-.188-.469H22.29c-.104.167-.27.354-.5.563-.208.187-.427.26-.656.218l-.094-.343.438-.813-.281-.406c.02-.25.083-.427.187-.531.125-.125.219-.271.281-.438v-3.25l.094-.093c.104.25.271.458.5.625.23.145.49.218.781.218.5-.02.886-.229 1.157-.625l.125-.031.03 3.063.563.687-.406.438.375.625c.104.166.156.437.156.812zm2.032-13.094a1.274 1.274 0 00-.5-.437 1.33 1.33 0 00-.657-.156c-.416 0-.76.135-1.03.406-.272.27-.407.604-.407 1 0 .375.114.698.344.969 0 .104-.042.177-.125.218-.063.021-.198 0-.407-.062l-1.718-.5a38.54 38.54 0 01-1.344-.438l1.375-.031 1.125-2.344 6.406.031c0 .084-.041.438-.125 1.063-.083.604-.208 1.094-.375 1.469-.146.125-.458.24-.937.344-.459.083-.813.177-1.063.28-.166-.208-.27-.489-.312-.843v-.125c0-.313-.084-.583-.25-.813v-.03zM14.1 20.472c.147.208.293.416.438.625 0 .062-.093.146-.28.25a1.325 1.325 0 01-.407.187l-.188-.093c-.083-.084-.114-.23-.093-.438.041-.23.093-.375.156-.438.062-.083.187-.114.375-.093zm-2.968 3.375v-1.75c-.02-.459.01-.834.094-1.125.27.27.604.406 1 .406s.73-.125 1-.375c.083.188.094.594.031 1.219-.041.625-.031 1.083.031 1.375a.869.869 0 00.22.437l.343.375-.25.594c.187.167.323.354.406.563a.52.52 0 01-.062.593h-.22a5.25 5.25 0 01-.28-.687v-.063H11.32l-.532.782h-.062l-.156-.125c.02-.209.083-.386.187-.532l.281-.406-.28-.375c.02-.23.072-.396.155-.5.084-.125.157-.26.22-.406zm3.156 1.656a9.2 9.2 0 01-.375-.469l.22-.468a1.214 1.214 0 00-.282-.438 1.297 1.297 0 01-.281-.406c-.042-.188-.052-.542-.032-1.063.042-.541.084-.875.125-1l.938.688c.062-.084.177-.146.344-.188.187-.062.364-.093.53-.093l.75.812.688-.063.313.313-2.844 2.281-.094.094zm6.657 3.094c.083-.396.156-.802.218-1.219l.75-.469c.042-.354.084-.604.125-.75.042-.166.115-.375.22-.625h1.687c.083.084.156.188.218.313.084.125.136.26.157.406.041.125.062.24.062.344 0 .083.021.166.063.25l.53.343c.105.146.157.365.157.657l-.031.781.625.219v.343h-5.375l.031-.187.563-.406zm-11.063.031l.063-.906c.062-.188.218-.365.468-.532a2.87 2.87 0 01.657-.343l.093-.844.22-.406c.207-.021.54-.032 1-.032h.78l.344.375c.042.167.052.334.031.5 0 .167.032.313.094.438.125.167.292.302.5.406.23.084.386.219.469.407v1.03l.687.22.063.28-.125.157H9.164c.105-.125.23-.24.375-.344a.809.809 0 00.344-.406zm18.25-1.5c.021-.27.052-.49.094-.656l.125-.563c.125-.02.396-.052.812-.093a7.989 7.989 0 011.094-.094l.438.5.156.781c.062.063.219.156.469.281l.5.219c.062.146.083.344.062.594 0 .229.01.427.031.593.188.084.334.198.438.344.104.146.198.313.281.5h-6.031l-.094-.281.625-.313c.021-.5.094-.895.219-1.187.125-.313.385-.52.781-.625zM8.508 18.472c.167.083.354.125.563.125.396-.021.718-.157.968-.407.25-.25.375-.562.375-.937s-.125-.688-.375-.938c-.25-.27-.572-.406-.968-.406h-.125c-.042-.146.041-.291.25-.437l.53-.344 2.97-2.25c.125-.063.218-.073.28-.031.063.02.084.052.063.094l-.125.218a.834.834 0 00-.187.281 1.04 1.04 0 00-.031.438c.02.146.03.281.03.406-.062.167-.145.375-.25.625l-.218.688-.344 1.219a1.445 1.445 0 01-.593.406.972.972 0 00-.532.468l.344.313c.146.146.219.281.219.406-.02.209-.094.396-.219.563a1.866 1.866 0 00-.281.531l.031.563c.021.395.031.791.031 1.187.021.375-.02.708-.125 1-.041 0-.114-.135-.218-.406l-.344-.782-1.813-2.375.032-.218h.062zm6.781-3.625a1.42 1.42 0 00.344-1.25.556.556 0 00-.062-.25 1.348 1.348 0 00-.532-.688c-.229-.166-.5-.25-.812-.25-.25 0-.469.052-.656.156h-.157l-.062-.093.406-.406c.334-.021.823-.042 1.469-.063.667-.02 1.083-.031 1.25-.031.146.104.448.27.906.5l.75.406.438 1.063 1.53-.032c-.062.146-.228.26-.5.344-.27.083-.5.146-.687.188-.562.124-1.156.25-1.78.374-.605.105-1.22.178-1.845.22v-.188zm-2.343-.25c.146.208.323.385.53.531.23.125.47.188.72.188s.479-.053.687-.157a1.5 1.5 0 01-.094.531l-.156.5-.594 1.97-.187.562a2.736 2.736 0 00-.125.593l-.063.032a1.528 1.528 0 00-.562-.688 1.697 1.697 0 00-.844-.281c-.166 0-.323.031-.469.094l-.062-.032.906-2.843.125-.5c.042-.188.104-.354.188-.5zm12.25.5c.208.125.448.187.718.187.521-.02.917-.24 1.188-.656h.031l.719 2.469.312.906c.105.313.157.646.157 1l-.157.063a1.515 1.515 0 00-.687-.157c-.25 0-.48.063-.688.188a1.165 1.165 0 00-.468.531l-.094.031-.781-3.406-.188-.563a1.412 1.412 0 01-.062-.593zm1.593 6.312c.209.125.448.188.72.188.29 0 .54-.073.75-.219.228-.167.395-.375.5-.625.145.25.312.698.5 1.344.207.646.332 1.125.374 1.437.146.084.271.188.375.313.104.104.219.198.344.281.02.104 0 .219-.063.344-.062.125-.114.24-.156.343l.938.782.093.125-.125.156-.25.094c-.25-.23-.49-.354-.718-.375-.23-.042-.594-.021-1.094.062-.292.021-.573.063-.844.125l-.25.907c-.146.02-.26 0-.344-.063l.125-.969-.437-.156.219-1.406a7.792 7.792 0 00-.407-1.375 9.406 9.406 0 01-.406-1.344l.156.031zm.438-2.218a1.123 1.123 0 011.281.563c.021.04.021.072 0 .093l-.031.031-2.031.5c-.084 0-.125-.02-.125-.063.02-.27.104-.51.25-.718.166-.209.385-.344.656-.407zm-.656 1.343c.083-.02.406-.093.968-.218l.97-.25h.062c.041 0 .062.03.062.093 0 .271-.083.521-.25.75a1.008 1.008 0 01-.625.407c-.27.062-.531.041-.781-.063a1.123 1.123 0 01-.531-.5c-.042-.083-.042-.135 0-.156l.093-.063h.032zm-4.563-1.375c.167-.229.375-.385.625-.468.271-.105.542-.105.813 0 .27.083.479.24.625.468.145.23.208.48.187.75 0 .063-.02.094-.062.094h-.032l-2.093-.719c-.063-.041-.084-.083-.063-.125zm.656 1.688c-.27-.084-.479-.24-.625-.469a1.192 1.192 0 01-.187-.75c0-.104.031-.156.094-.156.083 0 .135.01.156.031l1.969.688.062.03c.042.022.042.063 0 .126-.146.25-.354.427-.625.531-.27.083-.552.073-.844-.031zm-9.437-7.469c-.083-.042-.115-.083-.094-.125.167-.25.375-.427.625-.531.271-.104.542-.104.813 0 .291.083.52.24.687.469.167.229.24.479.219.75 0 .062-.01.093-.031.093h-.063l-2.156-.656zm0 .219c.083.02.427.125 1.031.312l1.031.313.063.031c.042.02.052.063.031.125-.146.27-.354.458-.625.563-.27.104-.552.114-.844.03a1.244 1.244 0 01-.687-.468 1.424 1.424 0 01-.219-.781c0-.104.031-.156.094-.156.083 0 .125.01.125.03zm-4.688 2.719c.25-.125.5-.167.75-.125.25.041.459.156.625.343.042.042.053.073.032.094l-.032.031-1.812.969c-.083.02-.125 0-.125-.063-.063-.25-.042-.49.062-.718.105-.23.271-.407.5-.532zm-.28 1.437c.062-.042.343-.198.843-.469l.937-.468c.042 0 .073.02.094.062.063.27.042.531-.062.781-.104.23-.282.407-.532.532-.229.125-.468.166-.718.125a1.272 1.272 0 01-.625-.313c-.063-.083-.073-.146-.032-.188l.063-.062h.031zm4.405 1.031c.271.104.49.282.657.532.166.229.24.49.218.78 0 .063-.02.095-.062.095h-.031l-2.22-.72c-.082-.04-.103-.093-.062-.155.146-.25.355-.417.625-.5.271-.105.563-.115.875-.032zm-1.437.907c.104.02.458.135 1.062.343l1.063.344.062.031c.042.021.042.063 0 .125-.145.271-.364.459-.656.563-.27.104-.552.114-.844.031a1.412 1.412 0 01-.687-.5c-.167-.25-.24-.52-.219-.813 0-.104.031-.156.094-.156.083 0 .125.01.125.032zm14.5-7c.27-.042.52.01.75.156.25.146.427.344.531.594.021.041.021.072 0 .093l-.031.031-2.156.313c-.105 0-.146-.031-.125-.094.02-.27.125-.51.312-.719.188-.208.427-.333.719-.374zm.344 2.343c-.292.042-.552 0-.782-.125a1.466 1.466 0 01-.53-.594c-.043-.104-.032-.166.03-.187.063-.042.105-.063.125-.063l2.063-.28h.062c.042 0 .063.03.063.093-.02.292-.125.552-.313.781a1.154 1.154 0 01-.718.375zM.633 11.847c.271 0 .552-.01.844-.031-.02.229-.104.385-.25.468a1.776 1.776 0 01-.563.188l.032.531.625-.094c.02-.083.062-.125.125-.125.083-.02.187-.031.312-.031l.063.063.187.28h.875l.219.282h.812c.375.02.615 0 .72-.063l.25-.28.312.28.375.032c.125 0 .229-.021.312-.063l.313-.375h2.187v-.406h.563l.062-.344h-.281l-.156-.594h.562V8.504h-.719v-.5l-3.187.719a.83.83 0 00-.188-.438l-1.812.531-.125.438a1.77 1.77 0 00-.563.094.57.57 0 00-.343.312l-.125.406-1.032.563v.406l.22.25v.031l-.626.094v.438zm6.875-.844c.25 0 .49-.01.719-.031v.656h-.719v-.625zm-.156-.563a27.182 27.182 0 01-.594-1.062v-.031h1.406l.063 1.125-.875-.031zM4.664 9.348h1.438l.75 1.094v.03H5.57c-.084-.29-.22-.5-.407-.624a5.656 5.656 0 01-.5-.5zm-2.28 1.625c0-.396.135-.73.405-1a1.36 1.36 0 011-.407c.417 0 .76.136 1.032.407.27.27.406.614.406 1.031 0 .396-.135.73-.406 1s-.615.406-1.032.406a1.36 1.36 0 01-1-.406c-.27-.27-.406-.615-.406-1.031zm1.437-1.25a1.3 1.3 0 01.875.375c.25.229.375.52.375.875 0 .354-.125.656-.375.906-.23.23-.521.344-.875.344s-.657-.115-.907-.344a1.294 1.294 0 01-.343-.906c0-.354.114-.646.343-.875.25-.23.553-.354.907-.375zm5.468-1.219v3.062h.72V8.504h-.72zm1.72 0v3.062h.687V8.504h-.688zm-.845 0v3.062h.657V8.504h-.657z" fill="#000"/></svg>