<svg xmlns="http://www.w3.org/2000/svg" viewBox="0 0 32 32">
    <g class="layer">
        <path d="M16.491 1.218c-3.98.746-13.808 8.334-12.44 9.579.373.373 3.856.124 7.837-.622C18.606 8.931 26.07 4.08 26.07 1.094c0-1.12-3.483-1.12-9.579.124zm7.837 4.976c-3.234 3.483-3.483 4.105-2.612 10.947 1.12 10.325 2.238 11.693 5.97 7.589 2.738-2.986 2.987-3.98 2.364-12.69-.249-5.224-.996-9.453-1.369-9.453-.497 0-2.488 1.617-4.354 3.607h.001zM7.411 12.91c-3.11.871-5.473 1.866-5.349 2.489.124.497.622 3.855.996 7.588 1.244 9.579 1.368 9.579 10.448 7.962l7.838-1.493-.872-6.22C18.855 10.05 18.731 10.05 7.411 12.912z"/>
    </g>
</svg>
