<svg xmlns="http://www.w3.org/2000/svg" viewBox="0 0 32 32"><path d="M14.648 1.898a291.13 291.13 0 00-1.397 1.589c-.019.027-.006.051.098.203.635.93 1.067 2.037 1.21 3.102.019.136.051.573.043.581a1.544 1.544 0 01-.122-.16c-.65-.91-1.533-1.707-2.395-2.16a.79.79 0 00-.203-.088 113.49 113.49 0 00-1.798 1.978c-.002.008.019.022.048.034.106.042.563.274.714.362.474.278.872.586 1.243.958.376.378.635.734.866 1.197.658 1.31.994 2.462 1.08 3.699a9.63 9.63 0 01-.024 1.288c-.125 1.069-.462 2.07-.95 2.814-.104.158-.43.501-.634.664-1.072.861-2.333.938-3.754.226a6.222 6.222 0 01-1.28-.862 9.288 9.288 0 01-.619-.666c-1.152-1.37-1.782-2.83-1.966-4.552a12.16 12.16 0 01-.01-1.528c.12-1.314.467-2.574 1.074-3.912.557-1.224 1.422-2.605 2.202-3.509.155-.179.176-.227.102-.227-.054 0-.667.426-1.179.821a15.53 15.53 0 00-1.629 1.442c-.578.578-.907.947-1.331 1.493a15.286 15.286 0 00-3.195 8.117 15.592 15.592 0 00.526 5.499c.643 2.274 1.736 4.282 3.31 6.093.253.291 1.093 1.13 1.379 1.379 1.387 1.205 2.862 2.107 4.496 2.749a15.25 15.25 0 005.59 1.048c3.672-.002 6.982-1.107 9.602-3.208a14.303 14.303 0 002.382-2.448c1.8-2.366 2.888-5.291 3.184-8.56.069-.762.093-1.39.067-1.776-.267-3.946-1.421-6.942-3.626-9.424-.73-.822-1.606-1.618-2.736-2.482-.51-.392-.944-.704-1.013-.731-.074-.029-.147-.035-.147-.013 0 .016.096.134.142.174.048.043.408.483.61.747.701.914 1.198 1.699 1.632 2.576.619 1.251.966 2.421 1.099 3.696.038.378.038 1.269 0 1.632a8.957 8.957 0 01-1.016 3.344c-.506.957-1.261 1.933-1.848 2.392-.45.352-.762.554-1.171.76a4.064 4.064 0 01-.816.32c-.36.099-.47.112-.904.112-.346-.002-.411-.006-.56-.038a3.217 3.217 0 01-1.523-.789c-.43-.386-.862-1.12-1.106-1.877a6.997 6.997 0 01-.299-1.68c-.093-1.477.258-3.28.888-4.576.438-.902 1.242-1.779 2.15-2.347a5.641 5.641 0 01.832-.423c.01-.008-1.762-1.99-1.779-1.99-.04 0-.512.294-.811.506-.696.493-1.403 1.189-1.832 1.806-.104.15-.101.149-.094.069a6.978 6.978 0 01.328-1.69 9.298 9.298 0 01.938-2.01l.102-.157-.056-.067A422.71 422.71 0 0016.04.341c-.008-.002-.635.698-1.392 1.557z"/></svg>
