<svg xmlns="http://www.w3.org/2000/svg" viewBox="0 0 32 32"><path d="M8.716.745a20.21 20.21 0 00-4.898 4.569C1.854 7.884.82 10.178.352 12.967.023 14.925.04 16.49.41 18.57c.618 3.495 1.496 5.58 3.258 7.769 1.71 2.12 3.876 3.604 6.539 4.482.843.277 2.848.699 4.205.884.479.069 1.011.144 1.19.179.404.075.757.075 1.155 0 .173-.029.705-.11 1.178-.173 1.461-.202 3.385-.612 4.332-.924 1.496-.503 3.217-1.427 4.39-2.374.624-.503 1.473-1.363 2.051-2.085 1.687-2.097 2.588-4.228 3.24-7.671.162-.872.179-1.08.208-2.518.023-1.259.012-1.71-.069-2.339-.387-3.102-1.415-5.62-3.367-8.254A20.448 20.448 0 0023.77.833c-.381-.254-.728-.485-.774-.514s.133.196.399.497c1.063 1.201 1.681 2.432 2.033 4.038.116.537.127.762.127 1.993 0 .999-.029 1.554-.098 1.981a17.453 17.453 0 01-1.213 4.182l-.306.716.162.399c.653 1.577 1.005 3.009 1.121 4.517l.04.537h-.283c-.156.006-1.681-.04-3.391-.098-2.097-.064-3.096-.116-3.084-.162.017-.029.843-1.346 1.843-2.917s1.866-2.94 1.923-3.033c.058-.098-1.184 1.115-2.761 2.686l-2.871 2.859v-.347c0-.52-.572-15.058-.589-15.082-.012-.006-.162 3.431-.329 7.648-.173 4.217-.329 7.682-.352 7.711-.017.023-1.323-1.248-2.894-2.83-1.571-1.577-2.825-2.83-2.79-2.784.139.173 3.899 6.129 3.882 6.146-.012.006-1.288.04-2.848.081-1.554.035-2.992.081-3.188.098l-.364.035v-.497c0-1.178.358-2.726.988-4.28l.283-.699-.289-.641a17.71 17.71 0 01-1.184-3.945c-.046-.3-.116-.982-.156-1.513-.191-2.801.56-5.089 2.258-6.874.266-.277.468-.508.456-.508-.017 0-.375.231-.803.514zm1.82 19.674c1.652.427 3.009.791 3.021.803.029.029-3.743 4.771-3.801 4.771-.168 0-1.167-1.484-1.617-2.397-.566-1.155-.89-2.334-.959-3.5l-.035-.566.196.052c.11.029 1.548.404 3.194.838zm14.677-.422a11.208 11.208 0 01-.358 2.068c-.347 1.201-1.167 2.686-2.108 3.818l-.283.347-1.993-2.495c-1.097-1.369-1.987-2.501-1.97-2.513.04-.046 6.469-1.687 6.614-1.692.133-.006.133 0 .098.468zM15.07 26.235a262.57 262.57 0 01-.144 3.731c-.023.029-1.161-.63-1.814-1.046-1.149-.739-2.42-1.779-2.986-2.449l-.237-.289 2.634-1.848c1.45-1.022 2.651-1.843 2.657-1.837.012.012-.035 1.692-.11 3.737zm4.973-1.577c1.253.866 2.287 1.606 2.299 1.646.023.098-1.305 1.381-1.941 1.871-.578.439-1.837 1.23-2.709 1.698l-.537.289v-.168c0-.087-.064-1.658-.144-3.483s-.144-3.483-.144-3.685v-.358l.451.312c.243.168 1.473 1.017 2.726 1.877z"/>
</svg>
