<svg xmlns="http://www.w3.org/2000/svg" viewBox="0 0 32 32">
    <path d="M14.588.48c-3.925.433-7.115 2.419-8.546 5.289-.555 1.12-.753 1.958-.913 3.784-.075.875-.16 1.798-.198 2.033l-.056.442.932.056c3.078.216 4.198.254 8.405.301 2.899.038 5.656.019 7.294-.047 2.616-.104 5.525-.282 5.581-.339.094-.085-.376-4.226-.546-4.791-1.129-3.962-4.998-6.56-10.08-6.776-.593-.019-1.431 0-1.873.047zm-9.92 13.28c-.282 2.127-1.242 6.184-2.052 8.593-.151.433-.179.734-.151 1.318.038.744.056.791.979 2.588.932 1.816 1.845 3.369 2.485 4.216.442.593 1.318 1.035 2.165 1.111.508.047.847 0 1.976-.273 3.153-.772 3.727-.856 5.882-.856 2.165-.009 2.381.019 5.76.791.894.207 1.788.376 1.986.376.753 0 1.779-.442 2.24-.951.988-1.111 3.426-5.619 3.624-6.701.113-.659.113-.659-.574-2.984a54.65 54.65 0 01-1.459-6.268c-.132-.762-.264-1.412-.292-1.44-.122-.122-1.054 1.035-1.431 1.751-.565 1.092-.536 1.346.226 2.212.875.988.988 1.816.461 3.209-.546 1.412-1.28 2.598-2.607 4.179-.508.612-.706.781-.96.828-.376.075-.339.094-2.315-1.129-4.358-2.701-4.866-2.701-9.195.019-.941.593-1.854 1.101-2.033 1.129-.395.056-.678-.169-1.534-1.224-1.176-1.468-1.976-2.861-2.447-4.273-.376-1.12-.245-1.656.706-2.833.508-.649.649-1.045.489-1.468-.32-.819-1.478-2.409-1.769-2.409-.056 0-.122.226-.16.489zm.038 7.134c0 .122-.866.659-.96.602-.151-.094-.066-.216.329-.452.424-.254.631-.301.631-.151zm23.219.141c.216.132.405.301.405.376 0 .198-.066.179-.584-.151-.715-.461-.565-.659.179-.226zm-22.937.33c0 .094-.819.659-.96.659-.216 0-.028-.301.329-.499.433-.254.631-.301.631-.16zm22.777.235c.207.132.358.282.32.339-.066.122-.188.075-.696-.245-.207-.132-.358-.282-.32-.339.066-.122.188-.075.696.245zm-22.541.339c-.028.047-.245.198-.48.329-.301.179-.452.226-.527.151-.066-.066.056-.179.405-.386.461-.264.725-.301.602-.094zm22.155.066c.424.264.602.489.367.489-.207-.009-1.026-.565-.969-.659.075-.132.132-.113.602.169zm-21.883.404c-.094.151-.922.64-.998.593-.16-.104-.056-.235.414-.499.461-.264.715-.301.584-.094zm21.553.047c.471.264.565.367.48.508-.075.122-.988-.452-.988-.621s0-.169.508.113zm-21.308.415c0 .122-.866.659-.96.602-.151-.094-.066-.216.329-.452.424-.254.631-.301.631-.151zm21.148.141c.216.132.405.301.405.376 0 .188-.019.188-.565-.151-.734-.452-.593-.659.16-.226zm-20.865.329c0 .094-.819.659-.96.659-.216 0-.028-.292.329-.508.424-.254.631-.301.631-.151zm20.649.198c.329.207.433.311.358.386-.122.122-1.092-.452-.998-.593.075-.132.151-.104.64.207zm-20.414.376c-.104.16-.885.574-.988.508-.151-.094-.028-.216.452-.461.424-.216.649-.235.536-.047zm20.094.057c.442.245.574.461.273.442-.226-.019-.941-.508-.885-.602.075-.132.085-.132.612.16zM15.2 14.532c-.762.188-1.431.536-2.927 1.544-1.638 1.092-2.438 1.515-3.426 1.807-.951.282-1.242.584-1.449 1.478-.226 1.007-.198 1.252.235 2.127.706 1.393 1.685 2.701 2.042 2.701.075 0 .358-.16.621-.348 2.278-1.656 3.332-2.362 4.094-2.739.838-.414.932-.442 1.647-.442.687 0 .838.038 1.487.348.809.386 1.628.922 3.454 2.259.687.508 1.327.922 1.421.922s.386-.235.64-.518c.48-.546 1.572-2.362 1.713-2.889.113-.367-.047-1.478-.282-2.024-.207-.471-.452-.64-1.252-.866-.951-.273-1.751-.696-3.313-1.751-2.391-1.609-3.36-1.939-4.706-1.609z"/>
</svg>
