<svg xmlns="http://www.w3.org/2000/svg" viewBox="0 0 25 32">
    <path d="M8.533 1.135c-3.475.998-5.643 3.372-6.641 7.398-.31 1.273-.723 2.581-.895 2.89-.172.344-.31 3.819-.31 7.742v7.157l3.406 1.789c1.892.998 3.51 1.824 3.613 1.824.344 0 .241-4.714-.172-6.606-.551-2.512-1.204-3.716-2.065-3.716-.998 0-2.065.619-2.959 1.652l-.791.929v-3.2c0-3.613 0-3.579 2.856-2.615 3.475 1.17 4.611 4.06 4.232 10.529-.103 2.065-.103 3.716.034 3.716.172 0 .619.103 1.067.206l.757.206V15.242l-1.961-.241c-1.101-.138-3.062-.516-4.404-.826-1.858-.482-2.443-.791-2.512-1.308-.103-.619.206-.654 10.426-.654 10.46 0 10.495 0 10.495.723 0 .619-.344.826-2.133 1.273-1.204.31-3.131.654-4.301.791l-2.168.241v7.845c0 6.09.103 7.88.447 7.88 1.101-.034 1.239-.516 1.17-5.161-.069-4.095.034-4.852.654-6.228.791-1.686 1.961-2.718 3.888-3.338 2.409-.826 2.443-.791 2.443 2.925-.034 3.166-.069 3.303-.551 2.443-.619-1.17-2.374-2.133-3.406-1.858-1.135.275-1.892 2.753-2.133 6.847-.172 2.718-.103 3.338.275 3.303.275 0 2.03-.895 3.923-1.961l3.441-1.961.103-6.297c.069-4.852-.034-6.538-.413-7.398-.275-.619-.654-1.892-.895-2.822-1.342-5.815-4.37-8.361-10.151-8.637-1.652-.069-3.406.034-4.37.31z"/>
</svg>
