<svg width="771" height="441" viewBox="0 0 771 441" fill="none" xmlns="http://www.w3.org/2000/svg">
<g clip-path="url(#clip0)">
<rect width="771" height="441" fill="#F1DDA8"/>
<path d="M27.7598 297.716C15.7841 296.651 11.8354 294.508 0 292.732V387H773V298.473C766.571 298.473 760.5 296.253 754.41 294.686C748.309 293.117 741.977 291.906 735.82 290.52C726.336 288.385 717.528 286.698 708.061 289.384C698.445 292.113 689.64 296.467 680.218 299.609C673.315 301.911 666.546 305.538 659.441 306.215C645.849 307.511 632.954 308.994 619.191 307.899C596.122 306.063 573.582 309.08 551.687 300.451C541.684 296.508 530.822 299.114 520.563 299.988C515.667 300.405 511.107 302.203 506.179 302.26C503.152 302.295 500.122 302.26 497.094 302.26C487.317 302.26 479.123 303.566 469.63 305.71C461.546 307.537 454.194 310.42 446.455 313.285C442.093 314.899 437.688 317.317 433.249 318.586C428.209 320.027 421.351 319.077 416.341 318.166C408.863 316.805 399.883 315.672 392.788 312.695C382.357 308.319 369.649 296.422 357.375 301.334C353.527 302.874 346.575 301.503 342.402 301.503C336.977 301.503 332.131 302.749 326.714 301.545C323.676 300.869 319.833 301.503 316.746 301.503C310.634 301.503 304.52 301.553 298.408 301.503C290.831 301.441 284.319 299.989 277.042 298.852C270.451 297.821 264.629 296.83 258.2 294.686C252.936 292.931 247.184 290.899 241.587 290.899C229.344 290.899 216.53 290.681 204.323 291.699C191.673 292.753 180.228 297.415 167.942 299.82C161.119 301.155 153.855 300.973 146.954 301.881C137.016 303.19 126.82 303.775 116.798 303.775H93.0772C84.2921 303.775 75.8315 302.408 67.0848 302.26C54.0491 302.039 40.7878 298.874 27.7598 297.716Z" fill="#DEC77B" stroke="#DEC77B" stroke-linecap="round" stroke-linejoin="round"/>
<g opacity="0.8">
<path d="M642.857 380.894C642.176 380.894 641.722 380.674 641.722 380.342V366.821C641.722 366.489 642.176 366.268 642.857 366.268C643.538 366.268 643.993 366.489 643.993 366.821V380.342C643.993 380.673 643.538 380.894 642.857 380.894Z" fill="#564532"/>
<path d="M632.135 380.869C631.454 380.869 631 380.648 631 380.317V366.795C631 366.464 631.454 366.243 632.135 366.243C632.816 366.243 633.27 366.464 633.27 366.795V380.317C633.27 380.648 632.816 380.869 632.135 380.869Z" fill="#564532"/>
<path d="M642.538 372.694H639.759C639.064 372.694 639.04 372.102 639.04 371.214C639.04 370.325 639.064 369.733 639.759 369.733H642.538C643.232 369.733 643.272 370.325 643.272 371.214C643.272 372.102 643.232 372.694 642.538 372.694ZM635.128 372.694H632.581C631.886 372.694 631.846 372.102 631.846 371.214C631.846 370.325 631.886 369.733 632.581 369.733H635.128C635.823 369.733 635.867 370.325 635.867 371.214C635.867 372.102 635.707 372.694 635.128 372.694Z" fill="#564532"/>
<path d="M639.933 380.869H637.154C636.459 380.869 635.996 380.607 635.996 380.214V371.506H635.185C634.49 371.506 634.027 371.244 634.027 370.851V364.238C634.027 363.125 635.649 362.208 637.501 362.208C638.428 362.208 639.354 362.405 640.049 362.798C640.744 363.19 641.091 363.649 641.091 364.238V380.214C641.091 380.607 640.512 380.869 639.933 380.869ZM638.775 379.559V364.238C638.775 364.042 638.659 363.91 638.428 363.78C638.196 363.649 637.848 363.583 637.617 363.583C636.922 363.583 636.459 363.91 636.459 364.303V370.196H637.269C637.964 370.196 638.928 370.338 638.928 370.73L639.183 379.257L638.775 379.559Z" fill="#564532"/>
<path d="M637.5 366.243C636.432 366.243 635.541 365.703 635.541 364.391V352.582C635.541 351.27 636.491 350.104 637.559 350.104C638.628 350.104 639.578 351.27 639.578 352.582V364.391C639.578 365.703 638.688 366.243 637.5 366.243Z" fill="#564532"/>
<path d="M637.405 353.13C636.716 353.13 636.256 352.604 636.256 351.813V339.567C636.256 338.777 636.715 338.25 637.405 338.25C638.094 338.25 638.553 338.777 638.553 339.567V351.813C638.553 352.604 638.094 353.13 637.405 353.13Z" fill="#564532"/>
<path d="M639.358 340.489H635.222C635.086 340.49 634.952 340.459 634.826 340.4C634.7 340.341 634.586 340.253 634.49 340.143C634.394 340.033 634.318 339.902 634.266 339.758C634.214 339.614 634.188 339.459 634.189 339.304C634.189 338.645 634.648 338.118 635.222 338.118H639.358C639.932 338.118 640.392 338.645 640.392 339.304C640.392 339.962 639.932 340.489 639.358 340.489H639.358Z" fill="#564532"/>
<path d="M635.289 380.869V364.79L635.037 364.226H639.83L640.082 380.869H635.289Z" fill="#564532"/>
</g>
<path d="M304.538 376.71C302.67 376.71 301.423 376.104 301.423 375.195V338.089C301.423 337.18 302.67 336.574 304.538 336.574C306.408 336.574 307.654 337.18 307.654 338.089V375.195C307.654 376.104 306.407 376.71 304.538 376.71Z" fill="#463629"/>
<path d="M275.114 376.64C273.246 376.64 272 376.034 272 375.125V338.019C272 337.11 273.246 336.504 275.115 336.504C276.984 336.504 278.23 337.11 278.23 338.019V375.125C278.23 376.034 276.984 376.64 275.114 376.64Z" fill="#463629"/>
<path d="M303.662 354.208H296.037C294.13 354.208 294.065 352.583 294.065 350.144C294.065 347.706 294.13 346.081 296.037 346.081H303.662C305.568 346.081 305.677 347.706 305.677 350.144C305.677 352.583 305.568 354.208 303.662 354.208ZM283.328 354.208H276.338C274.432 354.208 274.323 352.583 274.323 350.144C274.323 347.706 274.432 346.081 276.338 346.081H283.328C285.234 346.081 285.355 347.706 285.355 350.144C285.355 352.583 284.916 354.208 283.328 354.208Z" fill="#463629"/>
<path d="M296.514 376.64H288.887C286.981 376.64 285.71 375.922 285.71 374.844V350.946H283.485C281.578 350.946 280.308 350.228 280.308 349.15V331.002C280.308 327.948 284.758 325.432 289.841 325.432C292.383 325.432 294.925 325.971 296.832 327.049C298.739 328.127 299.692 329.385 299.692 331.002V374.843C299.692 375.921 298.103 376.64 296.514 376.64ZM293.336 373.046V331.002C293.336 330.463 293.017 330.103 292.383 329.744C291.747 329.385 290.793 329.205 290.158 329.205C288.251 329.205 286.98 330.103 286.98 331.181V347.352H289.204C291.111 347.352 293.757 347.741 293.757 348.818L294.455 372.216L293.336 373.046Z" fill="#463629"/>
<path d="M289.838 336.504C286.906 336.504 284.462 335.023 284.462 331.423V299.016C284.462 295.416 287.067 292.216 290 292.216C292.932 292.216 295.538 295.416 295.538 299.016V331.422C295.54 335.023 293.097 336.504 289.838 336.504Z" fill="#463629"/>
<path d="M289.576 300.52C287.685 300.52 286.424 299.075 286.424 296.907V263.3C286.424 261.132 287.684 259.686 289.575 259.686C291.467 259.686 292.727 261.132 292.727 263.3V296.907C292.728 299.075 291.467 300.52 289.575 300.52H289.576Z" fill="#463629"/>
<path d="M294.936 265.83H283.587C283.214 265.832 282.844 265.749 282.499 265.586C282.155 265.423 281.841 265.184 281.577 264.881C281.314 264.579 281.105 264.22 280.963 263.824C280.821 263.429 280.748 263.005 280.75 262.577C280.75 260.771 282.011 259.325 283.587 259.325H294.936C296.511 259.325 297.772 260.771 297.772 262.577C297.772 264.385 296.512 265.83 294.935 265.83H294.936Z" fill="#463629"/>
<path d="M283.769 376.64V332.516L283.077 330.968H296.231L296.923 376.64H283.769Z" fill="#463629"/>
<g opacity="0.9">
<g clip-path="url(#clip1)">
<path d="M704.096 377.848C703.115 377.848 702.46 377.529 702.46 377.052V357.555C702.46 357.078 703.115 356.759 704.096 356.759C705.079 356.759 705.733 357.078 705.733 357.555V377.052C705.733 377.529 705.078 377.848 704.096 377.848Z" fill="#463629"/>
<path d="M688.636 377.811C687.655 377.811 687 377.493 687 377.015V357.519C687 357.041 687.655 356.722 688.636 356.722C689.619 356.722 690.274 357.041 690.274 357.519V377.015C690.274 377.493 689.619 377.811 688.636 377.811Z" fill="#463629"/>
<path d="M703.636 366.025H699.63C698.628 366.025 698.593 365.171 698.593 363.889C698.593 362.608 698.628 361.754 699.63 361.754H703.636C704.637 361.754 704.695 362.608 704.695 363.889C704.695 365.171 704.638 366.025 703.636 366.025ZM692.952 366.025H689.279C688.278 366.025 688.22 365.171 688.22 363.889C688.22 362.608 688.278 361.754 689.279 361.754H692.952C693.953 361.754 694.017 362.608 694.017 363.889C694.017 365.171 693.786 366.025 692.952 366.025Z" fill="#463629"/>
<path d="M699.88 377.811H695.873C694.871 377.811 694.203 377.433 694.203 376.867V364.311H693.035C692.033 364.311 691.365 363.933 691.365 363.367V353.831C691.365 352.227 693.703 350.905 696.374 350.905C697.71 350.905 699.045 351.188 700.047 351.755C701.049 352.321 701.55 352.982 701.55 353.832V376.867C701.55 377.433 700.715 377.811 699.88 377.811ZM698.21 375.923V353.832C698.21 353.548 698.043 353.359 697.709 353.171C697.375 352.982 696.874 352.887 696.54 352.887C695.539 352.887 694.871 353.359 694.871 353.926V362.422H696.04C697.042 362.422 698.432 362.626 698.432 363.193L698.798 375.486L698.21 375.923Z" fill="#463629"/>
<path d="M696.373 356.722C694.832 356.722 693.548 355.944 693.548 354.053V337.026C693.548 335.134 694.917 333.452 696.458 333.452C697.998 333.452 699.368 335.134 699.368 337.026V354.052C699.368 355.944 698.085 356.722 696.373 356.722Z" fill="#463629"/>
<path d="M696.235 337.816C695.241 337.816 694.579 337.056 694.579 335.917V318.259C694.579 317.12 695.241 316.361 696.235 316.361C697.228 316.361 697.89 317.12 697.89 318.259V335.917C697.891 337.056 697.229 337.816 696.235 337.816H696.235Z" fill="#463629"/>
<path d="M699.051 319.589H693.088C692.892 319.59 692.698 319.546 692.517 319.46C692.335 319.375 692.171 319.249 692.032 319.09C691.894 318.931 691.784 318.742 691.709 318.535C691.635 318.327 691.597 318.104 691.597 317.88C691.597 316.93 692.26 316.171 693.088 316.171H699.051C699.879 316.171 700.541 316.93 700.541 317.88C700.541 318.829 699.879 319.589 699.051 319.589H699.051Z" fill="#463629"/>
<path d="M693.184 377.811V354.627L692.82 353.814H699.731L700.095 377.811H693.184Z" fill="#463629"/>
</g>
</g>
<rect y="376" width="771" height="66" fill="#463629"/>
<g opacity="0.5">
<path d="M425.756 374.287L386.287 373.838C386.018 373.838 385.838 373.748 385.658 373.569L382.421 369.972C382.331 369.882 382.242 369.703 382.242 369.523L378.735 350.103C378.645 349.653 378.915 349.204 379.364 349.114C380.084 348.844 389.704 348.125 395.458 347.675C395.817 347.675 396.087 347.765 396.267 348.035L396.537 348.484H415.237V348.304C415.327 347.945 415.687 347.675 416.046 347.675L425.846 346.866L442.659 346.596C442.928 346.596 443.198 346.686 443.378 346.956C443.558 347.226 443.558 347.495 443.468 347.765L439.872 358.554C439.872 358.644 439.782 358.734 439.692 358.824L426.476 374.018C426.296 374.197 426.026 374.287 425.756 374.287L425.756 374.287ZM386.737 372.04L425.397 372.49L438.343 357.745L441.49 348.395L426.026 348.574L416.945 349.294L416.856 349.474C416.765 349.833 416.406 350.103 415.957 350.103H396.087C395.817 350.103 395.548 349.923 395.368 349.743L395.008 349.473C390.153 349.833 383.051 350.372 380.623 350.642L383.86 368.983L386.737 372.04V372.04Z" fill="#463629"/>
<path d="M403.639 373.209H386.827C386.287 373.209 385.928 373.658 386.108 374.108L387.456 376.355C387.546 376.535 387.816 376.715 388.176 376.715H402.381C402.65 376.715 402.92 376.536 403.1 376.355L404.449 374.108C404.538 373.748 404.179 373.209 403.639 373.209ZM424.767 373.209H406.876C406.247 373.209 405.887 373.658 406.157 374.108L407.505 376.355C407.685 376.535 407.955 376.715 408.225 376.715H423.329C423.599 376.715 423.959 376.536 424.049 376.355L425.397 374.108C425.757 373.748 425.397 373.209 424.767 373.209Z" fill="#463629"/>
<path d="M425.576 373.658C425.037 373.658 424.678 373.208 424.678 372.759L425.038 347.675C425.038 347.226 425.487 346.776 425.936 346.776C426.476 346.776 426.835 347.226 426.835 347.675L426.476 372.849C426.476 373.299 426.026 373.658 425.576 373.658Z" fill="#463629"/>
<path d="M439.153 359.183C438.254 359.183 431.6 357.835 426.026 356.666C425.576 356.576 425.217 356.126 425.307 355.587C425.397 355.048 425.846 354.778 426.386 354.868C430.881 355.857 438.344 357.385 439.063 357.385C439.512 357.295 439.962 357.745 439.962 358.194C440.052 358.734 439.692 359.093 439.153 359.183Z" fill="#463629"/>
<path d="M386.647 373.568C386.557 373.568 386.377 373.568 386.287 373.479C385.838 373.299 385.568 372.759 385.748 372.309L395.188 349.024C395.368 348.574 395.908 348.304 396.357 348.484C396.807 348.664 397.076 349.204 396.897 349.653L387.456 372.939C387.276 373.299 387.007 373.568 386.647 373.568L386.647 373.568Z" fill="#463629"/>
<path d="M424.857 365.656C424.498 365.656 424.228 365.477 424.048 365.207C420.452 358.554 416.226 351.091 415.327 350.102C415.058 349.923 414.878 349.563 414.968 349.203C415.057 348.754 415.507 348.394 416.047 348.484C416.586 348.574 417.125 348.664 425.666 364.308C425.936 364.757 425.756 365.297 425.307 365.566C425.217 365.656 425.037 365.656 424.857 365.656L424.857 365.656Z" fill="#463629"/>
<path d="M383 370L380 350.5V350L395 348.5L396.5 349.5H415.5L420 348L442.5 347.5L439 358.5L426 373.5H389.5L383 370Z" fill="#463629" fill-opacity="0.9"/>
</g>
<path d="M149.763 333.792C141.791 333.792 135.268 340.315 135.268 348.287V385.248C135.268 385.973 135.631 386.335 136.356 386.335H162.807C163.532 386.335 163.893 385.974 163.893 385.249V348.287C164.257 340.315 157.736 333.792 149.763 333.792Z" fill="#463629"/>
<path d="M229.48 388.87H178.027C175.852 388.87 174.402 387.421 174.402 385.246V348.648C174.402 334.878 163.17 324.009 149.763 324.009C136.356 324.009 125.123 335.241 125.123 348.649V385.246C125.123 387.42 123.674 388.87 121.5 388.87H53.0158C51.2044 388.87 49.3924 387.421 49.3924 385.246V384.522V380.174C49.3924 378.361 51.2049 376.549 53.0158 376.549C55.1903 376.549 56.6392 378.361 56.6392 380.174V381.261H118.239V348.287C118.239 330.532 132.734 316.401 150.126 316.401C167.519 316.401 182.012 330.895 182.012 348.287V381.262H226.218C226.218 322.197 188.172 281.615 141.429 281.615C112.441 281.615 85.9896 292.848 70.4085 323.285C69.3215 325.097 67.147 325.822 65.6981 324.735C63.8856 323.647 63.1616 321.473 64.2491 320.024C81.2782 286.688 110.268 274.368 141.792 274.368C192.52 274.368 233.829 318.574 233.829 381.624V385.246C233.104 387.058 231.292 388.87 229.48 388.87H229.48Z" fill="#463629"/>
<path d="M178.027 388.87H121.499C119.325 388.87 117.876 387.421 117.876 385.246V348.648C117.876 330.892 132.371 316.762 149.763 316.762C167.156 316.762 181.648 331.257 181.648 348.649V385.246C181.648 387.058 180.2 388.87 178.026 388.87H178.027ZM125.123 381.623H174.403V348.65C174.403 334.881 163.17 324.01 149.763 324.01C136.356 324.01 125.123 335.244 125.123 348.65V381.625H125.122L125.123 381.623ZM53.0153 383.797H28.7378C26.5633 383.797 25.1144 382.348 25.1144 380.174V321.834C25.1144 319.66 26.5633 318.21 28.7373 318.21H66.4231C67.51 318.21 68.9595 318.935 69.6845 320.023C70.4095 321.11 70.4085 322.559 69.6845 323.645C60.9877 340.677 56.2773 360.243 56.2773 380.172C56.6387 382.347 54.8263 383.797 53.0153 383.797ZM32.3612 376.55H49.0304C49.7549 358.432 53.7408 341.04 60.6252 325.459H32.3617V376.55L32.3612 376.55ZM247.959 383.797H229.116C227.305 383.797 225.494 382.348 225.494 380.174C225.494 359.881 220.784 340.314 212.087 323.284C211.361 322.197 211.723 320.749 212.087 319.662C212.811 318.574 213.897 317.849 215.347 317.849H247.958C250.132 317.849 251.582 319.298 251.582 321.473V379.81C251.584 382.347 250.134 383.797 247.959 383.797ZM232.741 376.549H244.336V325.458H221.146C228.393 341.038 232.379 358.794 232.741 376.549Z" fill="#463629"/>
<path d="M120.05 350.098H60.2626C58.0887 350.098 56.6392 348.649 56.6392 346.475C56.6392 344.301 58.0882 342.852 60.2626 342.852H120.05C122.224 342.852 123.673 344.301 123.673 346.475C123.673 348.649 122.224 350.098 120.05 350.098ZM221.87 349.374H179.113C176.939 349.374 175.49 347.924 175.49 345.751C175.49 343.576 176.94 342.126 179.113 342.126H221.87C224.045 342.126 225.495 343.576 225.495 345.751C225.495 347.924 224.045 349.374 221.87 349.374Z" fill="#463629"/>
<path d="M58.8132 344.3H30.9118C28.7378 344.3 27.2883 342.851 27.2883 340.677C27.2883 338.503 28.7373 337.054 30.9118 337.054H58.8132C60.9877 337.054 62.4366 338.503 62.4366 340.678C62.4366 342.851 60.9877 344.3 58.8132 344.3Z" fill="#463629"/>
<path d="M29.5 379.5V323.5L65.5 322.5L81 303L98.5 288L123 278.5H156.5L188.5 293L216 323.5H248.5V379.5H29.5Z" fill="#463629" fill-opacity="0.9"/>
<g clip-path="url(#clip2)">
<path d="M583.463 106.979C604.545 106.979 621.635 89.7611 621.635 68.5212C621.635 47.2814 604.545 30.0631 583.463 30.0631C562.381 30.0631 545.29 47.2814 545.29 68.5212C545.29 89.7611 562.381 106.979 583.463 106.979Z" fill="#FAF3DD"/>
<path d="M683.226 186.724C709.112 186.724 730.096 165.583 730.096 139.503C730.096 113.424 709.112 92.2827 683.226 92.2827C657.341 92.2827 636.357 113.424 636.357 139.503C636.357 165.583 657.341 186.724 683.226 186.724Z" fill="#E5B66C"/>
</g>
<path d="M181.847 79.0552H174.025C172.407 79.0552 171.446 79.8403 171.142 81.4106C170.837 82.981 171.704 84.7036 173.743 86.5786C174.98 87.5513 174.769 88.0142 173.11 87.9673H166.114V91.7466H177.189C179.017 91.4419 179.948 90.5044 179.984 88.9341C180.019 87.3638 179.087 85.7466 177.189 84.0825C176.128 83.2036 176.351 82.7876 177.857 82.8345H181.847V79.0552Z" fill="black"/>
<path d="M188.526 86.3677L187.191 91.7466H183.06L179.193 79.0552H183.323L185.064 84.5396L186.575 79.0552H190.372L192.139 84.5396L193.317 79.0552H197.447L194.266 91.7466H190.135L188.526 86.3677Z" fill="black"/>
<path d="M196.771 91.7466V79.0552H204.259C205.273 79.0552 206.166 79.1899 206.94 79.4595C207.713 79.729 208.366 80.0923 208.9 80.5493C209.433 81.0063 209.875 81.6245 210.227 82.4038C210.584 83.1831 210.763 84.1968 210.763 85.4448C210.698 86.5991 210.505 87.5806 210.183 88.3892C209.86 89.1978 209.433 89.8364 208.9 90.3052C208.366 90.7739 207.713 91.1372 206.94 91.395C206.172 91.6528 205.208 91.77 204.048 91.7466H196.771ZM201.007 82.2017V88.5825H203.424C203.969 88.5825 204.408 88.4683 204.742 88.2397C205.076 88.0054 205.349 87.7095 205.56 87.3521C205.771 86.9888 205.905 86.3384 205.964 85.4009C205.946 84.5454 205.826 83.9155 205.604 83.5112C205.387 83.1011 205.106 82.7817 204.76 82.5532C204.414 82.3188 203.963 82.2017 203.406 82.2017H201.007Z" fill="black"/>
<path d="M211.378 91.7466V79.0552H222.259V82.8345H215.509V84.2935H219.868V86.5083H215.509V87.9673H223.331V91.7466H211.378Z" fill="black"/>
<path d="M233.316 79.0552H226.39C224.773 79.0552 223.812 79.8403 223.507 81.4106C223.202 82.981 224.069 84.7036 226.109 86.5786C227.345 87.5513 227.134 88.0142 225.476 87.9673H222.804V91.7466H229.554C231.382 91.4419 232.314 90.5044 232.349 88.9341C232.384 87.3638 231.452 85.7466 229.554 84.0825C228.493 83.2036 228.716 82.7876 230.222 82.8345H233.316V79.0552Z" fill="black"/>
<path d="M244.882 79.0552V82.8345H240.857V91.7466H236.726V82.8345H232.7V79.0552H244.882Z" fill="black"/>
<path d="M245.146 79.0552H249.276V91.7466H245.146V79.0552Z" fill="black"/>
<path d="M250.155 91.7466V79.0552H254.286L258.066 83.8013V79.0552H262.196V91.7466H258.066L254.286 87.0005V91.7466H250.155Z" fill="black"/>
<path d="M276.276 79.0552L270.739 87.0884V91.7466H266.591V87.0884L261.054 79.0552H266.064L268.648 82.9751L271.267 79.0552H276.276Z" fill="black"/>
<path d="M276.505 91.7466V88.2573H280.425V91.7466H276.505Z" fill="black"/>
<path d="M282.323 91.7466V79.0552H286.454L290.234 83.8013V79.0552H294.364V91.7466H290.234L286.454 87.0005V91.7466H282.323Z" fill="black"/>
<path d="M294.892 91.7466V79.0552H305.773V82.8345H299.023V84.2935H303.382V86.5083H299.023V87.9673H306.845V91.7466H294.892Z" fill="black"/>
<path d="M318.411 79.0552V82.8345H314.386V91.7466H310.255V82.8345H306.23V79.0552H318.411Z" fill="black"/>
<path d="M25.1144 101.048H372.587V110.338H25.1144V101.048Z" fill="black"/>
<path d="M91.7327 155.805V126.906H119.007V210.701H91.7327V180.525H69.7974V210.701H42.5234V151.859H25.1144V126.906H69.7974V155.805H91.7327Z" fill="black"/>
<path d="M218.122 169.268C218.122 178.436 216.207 186.251 212.377 192.712C208.547 199.172 202.995 204.028 195.722 207.277C188.488 210.527 179.841 212.152 169.783 212.152C159.724 212.152 151.078 210.527 143.844 207.277C136.648 203.989 131.193 199.153 127.479 192.77C123.765 186.348 121.908 178.514 121.908 169.268C121.908 162.265 122.972 156.114 125.1 150.814C127.228 145.475 130.342 140.988 134.443 137.351C138.544 133.715 143.573 130.968 149.531 129.111C155.488 127.215 162.239 126.268 169.783 126.268C179.803 126.268 188.449 127.931 195.722 131.258C202.995 134.546 208.547 139.421 212.377 145.882C216.207 152.304 218.122 160.099 218.122 169.268ZM151.678 169.5C151.678 174.877 152.877 179.558 155.275 183.543C157.713 187.528 162.491 189.52 169.609 189.52C175.102 189.52 179.203 188.476 181.911 186.387C184.658 184.297 186.36 181.918 187.018 179.249C187.714 176.541 188.178 173.291 188.411 169.5C188.178 164.122 186.882 159.441 184.523 155.457C182.163 151.433 177.191 149.421 169.609 149.421C157.655 149.421 151.678 156.114 151.678 169.5Z" fill="black"/>
<path d="M222.184 210.701V126.906H249.458V185.748H294.837V210.701H222.184Z" fill="black"/>
<path d="M391.631 169.268C391.631 178.436 389.716 186.251 385.886 192.712C382.056 199.172 376.505 204.028 369.232 207.277C361.997 210.527 353.351 212.152 343.292 212.152C333.234 212.152 324.587 210.527 317.353 207.277C310.157 203.989 304.703 199.153 300.989 192.77C297.275 186.348 295.418 178.514 295.418 169.268C295.418 162.265 296.482 156.114 298.609 150.814C300.737 145.475 303.851 140.988 307.952 137.351C312.053 133.715 317.082 130.968 323.04 129.111C328.998 127.215 335.749 126.268 343.292 126.268C353.312 126.268 361.959 127.931 369.232 131.258C376.505 134.546 382.056 139.421 385.886 145.882C389.716 152.304 391.631 160.099 391.631 169.268ZM325.187 169.5C325.187 174.877 326.386 179.558 328.785 183.543C331.222 187.528 336 189.52 343.118 189.52C348.612 189.52 352.713 188.476 355.421 186.387C358.167 184.297 359.87 181.918 360.527 179.249C361.224 176.541 361.688 173.291 361.92 169.5C361.688 164.122 360.392 159.441 358.032 155.457C355.672 151.433 350.701 149.421 343.118 149.421C331.164 149.421 325.187 156.114 325.187 169.5Z" fill="black"/>
<path d="M452.099 185.748H478.328V210.701H441.189C432.098 210.701 423.877 209.096 416.526 205.885C409.176 202.635 403.373 197.78 399.117 191.319C394.9 184.858 392.792 176.947 392.792 167.585C392.792 161.008 394.049 155.147 396.564 150.002C399.117 144.818 402.638 140.524 407.125 137.119C411.613 133.676 416.758 131.123 422.561 129.459C428.403 127.757 434.612 126.906 441.189 126.906H478.328V151.859H452.099C446.218 151.859 441.866 152.033 439.042 152.381C436.218 152.729 433.703 153.309 431.498 154.122C429.293 154.934 427.339 156.346 425.637 158.358C423.935 160.37 422.948 163.929 422.677 169.036C422.871 173.987 423.857 177.527 425.637 179.655C427.416 181.783 429.583 183.195 432.136 183.891C434.69 184.588 437.32 185.071 440.028 185.342C442.736 185.613 446.76 185.748 452.099 185.748Z" fill="black"/>
<path d="M481.81 210.701V126.906H536.358C543.089 127.525 548.622 129.304 552.954 132.245C557.287 135.185 560.46 139.131 562.471 144.083C564.019 151.511 564.096 157.236 562.704 161.26C561.311 165.283 558.874 168.649 555.392 171.357C551.91 174.065 546.919 176.193 540.42 177.74L543.554 181.744C545.643 184.413 549.279 185.748 554.463 185.748H571.756V210.701H551.678C543.012 210.701 534.25 206.097 525.39 196.89L512.101 183.021V210.701H481.81ZM512.101 147.797V163.233H533.224C534.346 163.233 535.565 162.826 536.88 162.014C538.196 161.163 538.892 159.054 538.969 155.689C538.776 152.478 537.983 150.369 536.59 149.363C535.236 148.319 534.095 147.797 533.166 147.797H512.101Z" fill="black"/>
<path d="M665.068 169.268C665.068 178.436 663.153 186.251 659.323 192.712C655.493 199.172 649.942 204.028 642.669 207.277C635.434 210.527 626.788 212.152 616.729 212.152C606.671 212.152 598.024 210.527 590.79 207.277C583.594 203.989 578.139 199.153 574.426 192.77C570.712 186.348 568.855 178.514 568.855 169.268C568.855 162.265 569.919 156.114 572.046 150.814C574.174 145.475 577.288 140.988 581.389 137.351C585.49 133.715 590.519 130.968 596.477 129.111C602.435 127.215 609.185 126.268 616.729 126.268C626.749 126.268 635.396 127.931 642.669 131.258C649.942 134.546 655.493 139.421 659.323 145.882C663.153 152.304 665.068 160.099 665.068 169.268ZM598.624 169.5C598.624 174.877 599.823 179.558 602.222 183.543C604.659 187.528 609.437 189.52 616.555 189.52C622.049 189.52 626.15 188.476 628.858 186.387C631.604 184.297 633.307 181.918 633.964 179.249C634.661 176.541 635.125 173.291 635.357 169.5C635.125 164.122 633.829 159.441 631.469 155.457C629.109 151.433 624.138 149.421 616.555 149.421C604.601 149.421 598.624 156.114 598.624 169.5Z" fill="black"/>
<path d="M669.13 210.701V126.906H696.404L721.357 158.242V126.906H748.631V210.701H721.357L696.404 179.365V210.701H669.13Z" fill="black"/>
</g>
<defs>
<clipPath id="clip0">
<rect width="771" height="441" fill="white"/>
</clipPath>
<clipPath id="clip1">
<rect x="687" y="316" width="18.9153" height="62" fill="white"/>
</clipPath>
<clipPath id="clip2">
<rect x="544.29" y="29.0552" width="186" height="159" fill="white"/>
</clipPath>
</defs>
</svg>
