<svg viewBox="0 0 294 55" fill="none" xmlns="http://www.w3.org/2000/svg"><path d="M156.732 0h-7.822c-1.617 0-2.578.785-2.883 2.355-.304 1.57.563 3.293 2.602 5.168 1.236.973 1.025 1.436-.633 1.39H141v3.778h11.074c1.828-.304 2.76-1.242 2.795-2.812.035-1.57-.896-3.188-2.795-4.852-1.06-.879-.838-1.295.668-1.248h3.99V0z" fill="#000"/><path d="M163.412 7.313l-1.336 5.378h-4.131L154.078 0h4.131l1.74 5.484L161.461 0h3.797l1.766 5.484L168.202 0h4.131l-3.182 12.691h-4.13l-1.609-5.379z" fill="#000"/><path d="M171.656 12.691V0h7.489c1.013 0 1.907.135 2.68.404.774.27 1.427.633 1.96 1.09.533.457.976 1.075 1.327 1.855.358.779.536 1.793.536 3.04-.064 1.155-.257 2.136-.58 2.945-.322.809-.75 1.447-1.283 1.916-.533.469-1.186.832-1.96 1.09-.767.258-1.731.375-2.891.351h-7.278zm4.237-9.545v6.381h2.417c.544 0 .984-.114 1.318-.342.334-.235.606-.53.817-.888.211-.363.346-1.014.405-1.951-.018-.856-.138-1.486-.361-1.89a2.55 2.55 0 00-.843-.958c-.346-.234-.797-.352-1.354-.352h-2.399zM186.264 12.691V0h10.881v3.78h-6.75v1.458h4.359v2.215h-4.359v1.46h7.822v3.778h-11.953z" fill="#000"/><path d="M208.201 0h-6.926c-1.617 0-2.578.785-2.882 2.355-.305 1.57.562 3.293 2.601 5.168 1.236.973 1.026 1.436-.633 1.39h-2.672v3.778h6.75c1.829-.304 2.76-1.242 2.795-2.812.036-1.57-.896-3.188-2.795-4.852-1.06-.879-.837-1.295.668-1.248h3.094V0z" fill="#000"/><path d="M219.768 0v3.78h-4.026v8.911h-4.131V3.78h-4.025V0h12.182zM220.031 0h4.131v12.691h-4.131V0zM225.041 12.691V0h4.131l3.779 4.746V0h4.131v12.691h-4.131l-3.779-4.746v4.746h-4.131z" fill="#000"/><path d="M251.162 0l-5.537 8.033v4.658h-4.148V8.033L235.939 0h5.01l2.584 3.92L246.152 0h5.01zM251.391 12.691V9.202h3.92v3.49h-3.92zM257.209 12.691V0h4.131l3.779 4.746V0h4.131v12.691h-4.131l-3.779-4.746v4.746h-4.131zM269.777 12.691V0h10.881v3.78h-6.75v1.458h4.36v2.215h-4.36v1.46h7.822v3.778h-11.953zM293.297 0v3.78h-4.026v8.911h-4.13V3.78h-4.026V0h12.182zM0 8.925h141v3.77H0v-3.77zM27.033 31.144V19.417H38.1V53.42H27.033V41.175h-8.901V53.42H7.064V29.543H0V19.417h18.132v11.727h8.9zM78.32 36.607c0 3.72-.777 6.892-2.331 9.513-1.554 2.622-3.807 4.592-6.758 5.91-2.936 1.32-6.445 1.979-10.526 1.979-4.082 0-7.59-.66-10.526-1.978-2.92-1.334-5.134-3.297-6.64-5.887-1.508-2.606-2.261-5.785-2.261-9.537 0-2.841.431-5.337 1.295-7.488.863-2.166 2.127-3.988 3.791-5.463 1.664-1.476 3.705-2.59 6.123-3.344 2.417-.77 5.157-1.154 8.218-1.154 4.066 0 7.574.675 10.526 2.025 2.95 1.335 5.204 3.313 6.758 5.934 1.554 2.606 2.331 5.77 2.331 9.49zm-26.962.094c0 2.182.486 4.082 1.46 5.699.989 1.617 2.928 2.425 5.816 2.425 2.23 0 3.893-.424 4.992-1.271 1.115-.848 1.806-1.814 2.072-2.897.283-1.099.471-2.417.566-3.956-.095-2.182-.62-4.081-1.578-5.698-.958-1.633-2.975-2.45-6.052-2.45-4.85 0-7.276 2.717-7.276 8.148zM79.968 53.42V19.417h11.068v23.878h18.414V53.42H79.968zM148.728 36.607c0 3.72-.777 6.892-2.331 9.513-1.554 2.622-3.807 4.592-6.759 5.91-2.935 1.32-6.444 1.979-10.525 1.979-4.082 0-7.591-.66-10.526-1.978-2.92-1.334-5.134-3.297-6.641-5.887-1.507-2.606-2.26-5.785-2.26-9.537 0-2.841.431-5.337 1.295-7.488.863-2.166 2.127-3.988 3.791-5.463 1.664-1.476 3.705-2.59 6.122-3.344 2.418-.77 5.157-1.154 8.219-1.154 4.066 0 7.574.675 10.525 2.025 2.952 1.335 5.205 3.313 6.759 5.934 1.554 2.606 2.331 5.77 2.331 9.49zm-26.962.094c0 2.182.486 4.082 1.46 5.699.989 1.617 2.927 2.425 5.816 2.425 2.229 0 3.893-.424 4.992-1.271 1.115-.848 1.805-1.814 2.072-2.897.283-1.099.471-2.417.565-3.956-.094-2.182-.62-4.081-1.577-5.698-.958-1.633-2.975-2.45-6.052-2.45-4.851 0-7.276 2.717-7.276 8.148zM173.265 43.295h10.643V53.42h-15.07c-3.689 0-7.025-.651-10.008-1.954-2.983-1.319-5.338-3.29-7.064-5.91-1.712-2.622-2.567-5.833-2.567-9.632 0-2.669.51-5.047 1.53-7.135 1.037-2.103 2.465-3.846 4.286-5.227 1.821-1.398 3.909-2.434 6.264-3.109 2.37-.69 4.89-1.036 7.559-1.036h15.07v10.126h-10.643c-2.386 0-4.153.07-5.299.212-1.146.141-2.166.376-3.061.706-.895.33-1.687.903-2.378 1.72-.691.815-1.091 2.26-1.201 4.332.078 2.01.479 3.446 1.201 4.31.722.863 1.601 1.436 2.637 1.718 1.036.283 2.104.479 3.203.589 1.099.11 2.731.165 4.898.165zM185.321 53.42V19.417h22.135c2.732.251 4.977.973 6.735 2.167 1.758 1.193 3.045 2.794 3.862 4.803.628 3.014.659 5.338.094 6.97-.565 1.633-1.554 2.999-2.967 4.098-1.413 1.099-3.438 1.962-6.076 2.59l1.272 1.625c.848 1.083 2.323 1.625 4.427 1.625h7.017V53.42h-8.147c-3.517 0-7.072-1.868-10.667-5.604l-5.393-5.628V53.42h-12.292zm12.292-25.526v6.264h8.572c.455 0 .949-.165 1.483-.494.534-.346.816-1.201.848-2.567-.079-1.303-.401-2.159-.966-2.567-.549-.424-1.012-.636-1.389-.636h-8.548z" fill="#000"/><path d="M259.685 36.607c0 3.72-.777 6.892-2.331 9.513-1.554 2.622-3.807 4.592-6.758 5.91-2.936 1.32-6.445 1.979-10.526 1.979-4.082 0-7.59-.66-10.526-1.978-2.92-1.334-5.133-3.297-6.641-5.887-1.507-2.606-2.26-5.785-2.26-9.537 0-2.841.432-5.337 1.295-7.488.863-2.166 2.127-3.988 3.791-5.463 1.664-1.476 3.705-2.59 6.123-3.344 2.417-.77 5.157-1.154 8.218-1.154 4.066 0 7.574.675 10.526 2.025 2.951 1.335 5.204 3.313 6.758 5.934 1.554 2.606 2.331 5.77 2.331 9.49zm-26.962.094c0 2.182.487 4.082 1.46 5.699.989 1.617 2.928 2.425 5.816 2.425 2.229 0 3.893-.424 4.992-1.271 1.115-.848 1.806-1.814 2.073-2.897.282-1.099.47-2.417.565-3.956-.095-2.182-.62-4.081-1.578-5.698-.958-1.633-2.975-2.45-6.052-2.45-4.851 0-7.276 2.717-7.276 8.148zM261.333 53.42V19.417h11.068l10.126 12.716V19.417h11.067V53.42h-11.067l-10.126-12.716V53.42h-11.068z" fill="#000"/></svg>