<svg viewBox="0 0 441 441" fill="none" xmlns="http://www.w3.org/2000/svg"><g clip-path="url(#clip0)"><path fill="#F1DDA8" d="M0 0h441v441H0z"/><path d="M27.76 297.716c-11.976-1.065-15.925-3.208-27.76-4.984V387h773v-88.527c-6.429 0-12.5-2.22-18.59-3.787-6.101-1.569-12.433-2.78-18.59-4.166-9.484-2.135-18.292-3.822-27.759-1.136-9.616 2.729-18.421 7.083-27.843 10.225-6.903 2.302-13.672 5.929-20.777 6.606-13.592 1.296-26.487 2.779-40.25 1.684-23.069-1.836-45.609 1.181-67.504-7.448-10.003-3.943-20.865-1.337-31.124-.463-4.896.417-9.456 2.215-14.384 2.272-3.027.035-6.057 0-9.085 0-9.777 0-17.971 1.306-27.464 3.45-8.084 1.827-15.436 4.71-23.175 7.575-4.362 1.614-8.767 4.032-13.206 5.301-5.04 1.441-11.898.491-16.908-.42-7.478-1.361-16.458-2.494-23.553-5.471-10.431-4.376-23.139-16.273-35.413-11.361-3.848 1.54-10.8.169-14.973.169-5.425 0-10.271 1.246-15.688.042-3.038-.676-6.881-.042-9.968-.042-6.112 0-12.226.05-18.338 0-7.577-.062-14.089-1.514-21.366-2.651-6.591-1.031-12.413-2.022-18.842-4.166-5.264-1.755-11.016-3.787-16.613-3.787-12.243 0-25.057-.218-37.264.8-12.65 1.054-24.095 5.716-36.381 8.121-6.823 1.335-14.087 1.153-20.988 2.061-9.938 1.309-20.134 1.894-30.156 1.894h-23.72c-8.786 0-17.246-1.367-25.993-1.515-13.036-.221-26.297-3.386-39.325-4.544z" fill="#DEC77B" stroke="#DEC77B" stroke-linecap="round" stroke-linejoin="round"/><g clip-path="url(#clip1)"><path d="M300.381 186.117c17.228 0 31.194-13.97 31.194-31.202s-13.966-31.202-31.194-31.202c-17.229 0-31.195 13.97-31.195 31.202s13.966 31.202 31.195 31.202z" fill="#FAF3DD"/><path d="M381.908 250.815c21.154 0 38.302-17.152 38.302-38.311 0-21.158-17.148-38.311-38.302-38.311s-38.302 17.153-38.302 38.311c0 21.159 17.148 38.311 38.302 38.311z" fill="#E5B66C"/></g><g opacity=".5" fill="#463629"><path d="M425.756 374.287l-39.469-.449a.819.819 0 01-.629-.269l-3.237-3.597a.684.684 0 01-.179-.449l-3.507-19.42c-.09-.45.18-.899.629-.989.72-.27 10.34-.989 16.094-1.439.359 0 .629.09.809.36l.27.449h18.7v-.18a.864.864 0 01.809-.629l9.8-.809 16.813-.27c.269 0 .539.09.719.36.18.27.18.539.09.809l-3.596 10.789c0 .09-.09.18-.18.27l-13.216 15.194c-.18.179-.45.269-.72.269zm-39.019-2.247l38.66.45 12.946-14.745 3.147-9.35-15.464.179-9.081.72-.089.18c-.091.359-.45.629-.899.629h-19.87c-.27 0-.539-.18-.719-.36l-.36-.27c-4.855.36-11.957.899-14.385 1.169l3.237 18.341 2.877 3.057z"/><path d="M403.639 373.209h-16.812c-.54 0-.899.449-.719.899l1.348 2.247c.09.18.36.36.72.36h14.205c.269 0 .539-.179.719-.36l1.349-2.247c.089-.36-.27-.899-.81-.899zm21.128 0h-17.891c-.629 0-.989.449-.719.899l1.348 2.247c.18.18.45.36.72.36h15.104c.27 0 .63-.179.72-.36l1.348-2.247c.36-.36 0-.899-.63-.899z"/><path d="M425.576 373.658a.9.9 0 01-.898-.899l.36-25.084c0-.449.449-.899.898-.899a.9.9 0 01.899.899l-.359 25.174c0 .45-.45.809-.9.809z"/><path d="M439.153 359.183c-.899 0-7.553-1.348-13.127-2.517a.932.932 0 01-.719-1.079c.09-.539.539-.809 1.079-.719 4.495.989 11.958 2.517 12.677 2.517.449-.09.899.36.899.809.09.54-.27.899-.809.989zM386.647 373.568c-.09 0-.27 0-.36-.089-.449-.18-.719-.72-.539-1.17l9.44-23.285c.18-.45.72-.72 1.169-.54.45.18.719.72.54 1.169l-9.441 23.286c-.18.36-.449.629-.809.629zM424.857 365.656c-.359 0-.629-.179-.809-.449-3.596-6.653-7.822-14.116-8.721-15.105a.855.855 0 01-.359-.899.932.932 0 011.079-.719c.539.09 1.078.18 9.619 15.824.27.449.09.989-.359 1.258-.09.09-.27.09-.45.09z"/><path d="M383 370l-3-19.5v-.5l15-1.5 1.5 1h19l4.5-1.5 22.5-.5-3.5 11-13 15h-36.5L383 370z" fill-opacity=".9"/></g><g clip-path="url(#clip2)" fill="#463629" opacity=".9"><path d="M291.638 376.848c-.981 0-1.636-.319-1.636-.796v-19.497c0-.477.655-.796 1.637-.796s1.637.319 1.637.796v19.497c0 .477-.655.796-1.638.796zM276.179 376.811c-.982 0-1.637-.318-1.637-.796v-19.496c0-.478.655-.797 1.637-.797s1.637.319 1.637.797v19.496c0 .478-.655.796-1.637.796z"/><path d="M291.178 365.025h-4.006c-1.002 0-1.036-.854-1.036-2.136 0-1.281.034-2.135 1.036-2.135h4.006c1.002 0 1.059.854 1.059 2.135 0 1.282-.057 2.136-1.059 2.136zm-10.684 0h-3.672c-1.002 0-1.059-.854-1.059-2.136 0-1.281.057-2.135 1.059-2.135h3.672c1.002 0 1.065.854 1.065 2.135 0 1.282-.23 2.136-1.065 2.136z"/><path d="M287.423 376.811h-4.008c-1.001 0-1.669-.378-1.669-.944v-12.556h-1.169c-1.002 0-1.67-.378-1.67-.944v-9.536c0-1.604 2.339-2.926 5.009-2.926 1.336 0 2.672.283 3.674.85 1.001.566 1.503 1.227 1.503 2.077v23.035c0 .566-.836.944-1.67.944zm-1.67-1.888v-22.091c0-.284-.168-.473-.501-.661-.334-.189-.835-.284-1.169-.284-1.002 0-1.67.472-1.67 1.039v8.496h1.169c1.002 0 2.392.204 2.392.771l.367 12.293-.588.437z"/><path d="M283.915 355.722c-1.541 0-2.825-.778-2.825-2.669v-17.027c0-1.892 1.369-3.574 2.91-3.574 1.54 0 2.91 1.682 2.91 3.574v17.026c.001 1.892-1.283 2.67-2.995 2.67z"/><path d="M283.777 336.816c-.993 0-1.656-.76-1.656-1.899v-17.658c0-1.139.662-1.898 1.656-1.898.994 0 1.656.759 1.656 1.898v17.658c0 1.139-.662 1.899-1.656 1.899z"/><path d="M286.593 318.589h-5.963a1.312 1.312 0 01-.571-.129 1.473 1.473 0 01-.484-.37 1.726 1.726 0 01-.323-.555 1.911 1.911 0 01-.112-.655c0-.95.663-1.709 1.49-1.709h5.963c.828 0 1.491.759 1.491 1.709 0 .949-.663 1.709-1.491 1.709zM280.726 376.811v-23.184l-.364-.813h6.912l.364 23.997h-6.912z"/></g><g clip-path="url(#clip3)" fill="#564532" opacity=".8"><path d="M247.56 380.578c-.68 0-1.134-.221-1.134-.552v-13.522c0-.331.454-.552 1.135-.552s1.135.221 1.135.552v13.522c0 .331-.454.552-1.136.552zM236.838 380.552c-.68 0-1.135-.221-1.135-.552v-13.522c0-.331.455-.552 1.135-.552.682 0 1.136.221 1.136.552V380c0 .331-.454.552-1.136.552z"/><path d="M247.241 372.378h-2.778c-.695 0-.719-.592-.719-1.481 0-.889.024-1.481.719-1.481h2.778c.695 0 .735.592.735 1.481 0 .889-.04 1.481-.735 1.481zm-7.41 0h-2.547c-.694 0-.734-.592-.734-1.481 0-.889.04-1.481.734-1.481h2.548c.694 0 .738.592.738 1.481 0 .889-.16 1.481-.739 1.481z"/><path d="M244.637 380.552h-2.78c-.694 0-1.158-.262-1.158-.654v-8.709h-.81c-.695 0-1.158-.262-1.158-.655v-6.613c0-1.113 1.621-2.029 3.474-2.029.926 0 1.853.196 2.547.589.695.393 1.043.851 1.043 1.44v15.976c0 .393-.579.655-1.158.655zm-1.159-1.309v-15.322c0-.196-.116-.327-.347-.458-.232-.131-.579-.196-.811-.196-.694 0-1.158.327-1.158.72v5.893h.811c.695 0 1.659.141 1.659.534l.254 8.526-.408.303z"/><path d="M242.204 365.926c-1.069 0-1.959-.54-1.959-1.851v-11.809c0-1.313.949-2.479 2.018-2.479 1.068 0 2.018 1.166 2.018 2.479v11.808c.001 1.312-.89 1.852-2.077 1.852z"/><path d="M242.108 352.814c-.689 0-1.148-.527-1.148-1.317V339.25c0-.79.459-1.317 1.148-1.317.689 0 1.149.527 1.149 1.317v12.247c0 .79-.459 1.317-1.149 1.317z"/><path d="M244.061 340.172h-4.135a.898.898 0 01-.396-.089 1.023 1.023 0 01-.336-.256 1.189 1.189 0 01-.224-.386 1.314 1.314 0 01-.078-.454c0-.658.46-1.185 1.034-1.185h4.135c.575 0 1.034.527 1.034 1.185 0 .659-.459 1.185-1.034 1.185zM239.992 380.552v-16.079l-.252-.564h4.793l.253 16.643h-4.794z"/></g><g clip-path="url(#clip4)" fill="#463629"><path d="M218.288 377.813c-1.193 0-1.99-.39-1.99-.975v-23.899c0-.586.797-.976 1.99-.976 1.195 0 1.991.39 1.991.976v23.899c0 .585-.797.975-1.991.975zM199.49 377.768c-1.194 0-1.99-.39-1.99-.975v-23.899c0-.586.796-.976 1.99-.976s1.991.39 1.991.976v23.899c0 .585-.797.975-1.991.975z"/><path d="M217.728 363.32h-4.871c-1.218 0-1.26-1.046-1.26-2.617 0-1.57.042-2.617 1.26-2.617h4.871c1.218 0 1.288 1.046 1.288 2.617s-.07 2.617-1.288 2.617zm-12.991 0h-4.466c-1.217 0-1.287-1.046-1.287-2.617 0-1.57.07-2.617 1.288-2.617h4.465c1.218 0 1.295 1.046 1.295 2.617s-.28 2.617-1.295 2.617z"/><path d="M213.162 377.768h-4.873c-1.218 0-2.03-.463-2.03-1.157v-15.392h-1.421c-1.218 0-2.03-.462-2.03-1.157v-11.688c0-1.967 2.843-3.587 6.09-3.587 1.624 0 3.249.347 4.467 1.041 1.218.694 1.827 1.505 1.827 2.546v28.237c0 .694-1.015 1.157-2.03 1.157zm-2.031-2.314v-27.08c0-.347-.203-.579-.609-.81-.406-.231-1.015-.347-1.421-.347-1.218 0-2.031.578-2.031 1.273v10.415h1.422c1.218 0 2.908.25 2.908.944l.446 15.07-.715.535z"/><path d="M208.897 351.918c-1.874 0-3.435-.954-3.435-3.273v-20.872c0-2.319 1.664-4.38 3.538-4.38 1.873 0 3.538 2.061 3.538 4.38v20.871c.001 2.32-1.559 3.274-3.641 3.274z"/><path d="M208.729 328.742c-1.208 0-2.014-.931-2.014-2.328v-21.645c0-1.396.806-2.327 2.014-2.327 1.208 0 2.013.931 2.013 2.327v21.645c.001 1.397-.804 2.328-2.013 2.328z"/><path d="M212.153 306.399h-7.25a1.596 1.596 0 01-.695-.157 1.808 1.808 0 01-.589-.454 2.13 2.13 0 01-.393-.681 2.369 2.369 0 01-.136-.803c0-1.163.806-2.095 1.813-2.095h7.25c1.007 0 1.812.932 1.812 2.095 0 1.164-.805 2.095-1.812 2.095zM205.019 377.768v-28.419l-.442-.997h8.404l.442 29.416h-8.404z"/></g><path d="M28.27 382.061v-40.904l26.168-.731 11.267-14.243 12.72-10.957 17.809-6.939h24.35l23.26 10.591 19.989 22.279h23.623v40.904H28.271z" fill="#554531"/><path d="M115.687 348.674c-5.795 0-10.536 4.765-10.536 10.588v26.997c0 .53.263.794.79.794h19.227c.527 0 .79-.264.79-.793v-26.998c.264-5.823-4.476-10.588-10.271-10.588z" fill="#463629"/><path d="M173.631 388.905h-37.4c-1.581 0-2.635-1.058-2.635-2.647v-26.732c0-10.058-8.164-17.998-17.909-17.998-9.746 0-17.91 8.205-17.91 17.998v26.732c0 1.588-1.053 2.647-2.634 2.647h-49.78c-1.316 0-2.633-1.058-2.633-2.647v-3.705c0-1.324 1.318-2.648 2.634-2.648 1.58 0 2.634 1.324 2.634 2.648v.794h44.775v-24.085c0-12.969 10.536-23.291 23.178-23.291 12.642 0 23.177 10.587 23.177 23.291v24.086h32.132c0-43.143-27.655-72.786-61.631-72.786-21.07 0-40.297 8.205-51.623 30.437-.79 1.324-2.37 1.853-3.424 1.059-1.317-.794-1.843-2.382-1.053-3.44 12.378-24.35 33.45-33.349 56.363-33.349 36.874 0 66.9 32.289 66.9 78.343v2.646c-.527 1.323-1.844 2.647-3.161 2.647z" fill="#463629"/><path d="M136.231 388.905H95.142c-1.58 0-2.633-1.058-2.633-2.647v-26.732c0-12.97 10.536-23.291 23.178-23.291 12.642 0 23.176 10.587 23.176 23.291v26.732c0 1.324-1.052 2.647-2.632 2.647zm-38.454-5.293h35.82v-24.085c0-10.058-8.165-17.998-17.91-17.998-9.746 0-17.91 8.205-17.91 17.998v24.086-.001zM45.364 385.2H27.717c-1.58 0-2.634-1.059-2.634-2.647V339.94c0-1.588 1.053-2.647 2.634-2.647h27.392c.79 0 1.844.529 2.37 1.324a2.413 2.413 0 010 2.646c-6.32 12.44-9.744 26.732-9.744 41.289.262 1.588-1.055 2.648-2.371 2.648zm-15.013-5.294h12.116c.527-13.234 3.424-25.938 8.428-37.319H30.35v37.319zm156.712 5.294h-13.697c-1.316 0-2.632-1.059-2.632-2.647 0-14.823-3.424-29.115-9.746-41.554-.527-.794-.264-1.852 0-2.646.526-.795 1.316-1.324 2.37-1.324h23.704c1.58 0 2.634 1.058 2.634 2.647v42.611c.001 1.853-1.053 2.913-2.633 2.913zm-11.062-5.295h8.428v-37.318h-16.856c5.268 11.38 8.165 24.349 8.428 37.318z" fill="#463629"/><path d="M94.09 360.585H50.63c-1.58 0-2.633-1.059-2.633-2.647 0-1.587 1.053-2.646 2.634-2.646h43.457c1.58 0 2.634 1.059 2.634 2.646 0 1.588-1.054 2.647-2.634 2.647zm74.01-.529h-31.079c-1.581 0-2.634-1.059-2.634-2.646 0-1.589 1.054-2.648 2.634-2.648H168.1c1.581 0 2.634 1.059 2.634 2.648 0 1.587-1.053 2.646-2.634 2.646z" fill="#463629"/><path d="M49.578 356.349h-20.28c-1.581 0-2.635-1.058-2.635-2.646 0-1.588 1.053-2.646 2.634-2.646h20.28c1.581 0 2.635 1.058 2.635 2.647 0 1.587-1.054 2.645-2.634 2.645z" fill="#463629"/><path d="M233.6 14.377h-10.488c-2.168 0-3.457 1.053-3.865 3.158-.409 2.105.754 4.415 3.488 6.93 1.658 1.303 1.375 1.924-.848 1.861h-9.381v5.067h14.848c2.452-.408 3.701-1.665 3.748-3.77.047-2.106-1.202-4.274-3.748-6.506-1.421-1.178-1.123-1.736.896-1.673h5.35v-5.067z" fill="#000"/><path d="M242.556 24.181l-1.791 7.212h-5.539l-5.185-17.016h5.539l2.333 7.353 2.027-7.353h5.091l2.368 7.353 1.579-7.353h5.539l-4.266 17.016h-5.538l-2.157-7.212z" fill="#000"/><path d="M253.61 31.393V14.377h10.04c1.359 0 2.557.18 3.594.542 1.037.361 1.913.848 2.628 1.461.715.613 1.308 1.442 1.779 2.487.479 1.044.719 2.404.719 4.077-.086 1.548-.346 2.864-.778 3.948-.432 1.084-1.005 1.94-1.72 2.569-.715.628-1.591 1.115-2.628 1.46-1.029.346-2.322.504-3.877.472h-9.757zm5.68-12.797v8.555h3.24c.731 0 1.32-.153 1.768-.46a3.787 3.787 0 001.096-1.19c.283-.487.463-1.359.542-2.616-.024-1.147-.185-1.992-.483-2.534-.291-.55-.668-.978-1.132-1.284-.463-.314-1.068-.471-1.814-.471h-3.217zM273.195 31.393V14.377h14.589v5.067h-9.051V21.4h5.845v2.97h-5.845v1.956h10.488v5.067h-16.026z" fill="#000"/><path d="M302.608 14.377h-9.286c-2.168 0-3.457 1.053-3.865 3.158-.409 2.105.754 4.415 3.488 6.93 1.658 1.303 1.375 1.924-.848 1.861h-3.583v5.067h9.05c2.452-.408 3.701-1.665 3.748-3.77.047-2.106-1.202-4.274-3.748-6.506-1.422-1.178-1.123-1.736.896-1.673h4.148v-5.067z" fill="#000"/><path d="M318.116 14.377v5.067h-5.397v11.95h-5.539v-11.95h-5.397v-5.067h16.333zM318.47 14.377h5.538v17.016h-5.538V14.377zM325.187 31.393V14.377h5.538l5.067 6.363v-6.363h5.539v17.016h-5.539l-5.067-6.363v6.363h-5.538z" fill="#000"/><path d="M360.209 14.377l-7.424 10.77v6.246h-5.562v-6.245l-7.424-10.771h6.717l3.464 5.256 3.512-5.256h6.717zM360.515 31.393v-4.678h5.256v4.678h-5.256zM368.317 31.393V14.377h5.538l5.067 6.363v-6.363h5.539v17.016h-5.539l-5.067-6.363v6.363h-5.538zM385.168 31.393V14.377h14.589v5.067h-9.051V21.4h5.845v2.97h-5.845v1.956h10.488v5.067h-16.026zM416.702 14.377v5.067h-5.397v11.95h-5.538v-11.95h-5.398v-5.067h16.333zM23.457 26.343h189.049v5.054H23.457v-5.054zM59.702 56.134V40.41h14.84V86h-14.84V69.584H47.768V86h-14.84V53.987h-9.47V40.411h24.31v15.723h11.934zM128.467 63.459c0 4.988-1.042 9.24-3.126 12.755-2.084 3.515-5.104 6.157-9.061 7.924-3.936 1.769-8.641 2.653-14.113 2.653-5.473 0-10.177-.884-14.113-2.653-3.915-1.789-6.883-4.42-8.903-7.892-2.02-3.495-3.031-7.757-3.031-12.787 0-3.81.579-7.157 1.736-10.04 1.158-2.905 2.852-5.347 5.083-7.325 2.232-1.979 4.968-3.473 8.21-4.483 3.24-1.032 6.913-1.547 11.018-1.547 5.451 0 10.156.905 14.113 2.715 3.957 1.789 6.977 4.441 9.061 7.956 2.084 3.494 3.126 7.735 3.126 12.724zm-36.15.126c0 2.926.652 5.473 1.957 7.64 1.326 2.168 3.925 3.252 7.798 3.252 2.989 0 5.22-.568 6.694-1.705 1.494-1.136 2.42-2.43 2.778-3.883.379-1.473.631-3.241.758-5.304-.127-2.926-.832-5.473-2.116-7.64-1.284-2.19-3.988-3.284-8.114-3.284-6.504 0-9.756 3.641-9.756 10.924zM130.677 86.001v-45.59h14.839v32.014h24.689v13.576h-39.528zM222.868 63.459c0 4.988-1.042 9.24-3.126 12.755-2.084 3.515-5.104 6.157-9.061 7.924-3.936 1.769-8.64 2.653-14.113 2.653-5.472 0-10.177-.884-14.113-2.653-3.915-1.789-6.883-4.42-8.903-7.892-2.021-3.495-3.031-7.757-3.031-12.787 0-3.81.579-7.157 1.736-10.04 1.158-2.905 2.852-5.347 5.084-7.325 2.231-1.979 4.967-3.473 8.208-4.483 3.242-1.032 6.915-1.547 11.019-1.547 5.452 0 10.156.905 14.113 2.715 3.957 1.789 6.977 4.441 9.061 7.956 2.084 3.494 3.126 7.735 3.126 12.724zm-36.15.126c0 2.926.652 5.473 1.957 7.64 1.326 2.168 3.925 3.252 7.798 3.252 2.989 0 5.22-.568 6.694-1.705 1.494-1.136 2.42-2.43 2.778-3.883.379-1.473.631-3.241.758-5.304-.127-2.926-.832-5.473-2.116-7.64-1.284-2.19-3.988-3.284-8.114-3.284-6.504 0-9.755 3.641-9.755 10.924zM255.766 72.425h14.271v13.576h-20.206c-4.947 0-9.42-.873-13.419-2.62-3.999-1.768-7.156-4.41-9.471-7.925-2.295-3.515-3.442-7.82-3.442-12.913 0-3.578.684-6.767 2.052-9.566 1.39-2.82 3.305-5.157 5.747-7.01 2.441-1.873 5.241-3.262 8.398-4.167 3.178-.926 6.556-1.39 10.135-1.39h20.206v13.577h-14.271c-3.199 0-5.567.095-7.104.284-1.536.19-2.904.505-4.104.947-1.2.442-2.263 1.21-3.189 2.305-.926 1.095-1.463 3.031-1.61 5.81.105 2.694.642 4.62 1.61 5.777.968 1.158 2.147 1.926 3.536 2.305 1.389.379 2.821.642 4.294.79 1.473.147 3.662.22 6.567.22zM271.931 86.001v-45.59h29.678c3.662.337 6.672 1.305 9.03 2.904 2.357 1.6 4.083 3.747 5.178 6.441.842 4.041.884 7.157.126 9.346s-2.084 4.02-3.978 5.493c-1.895 1.474-4.61 2.631-8.146 3.473l1.705 2.179c1.137 1.452 3.115 2.178 5.936 2.178h9.408v13.576h-10.924c-4.715 0-9.482-2.504-14.302-7.514l-7.23-7.546v15.06h-16.481zm16.481-34.224v8.398h11.492c.611 0 1.274-.22 1.989-.663.716-.463 1.095-1.61 1.137-3.441-.105-1.747-.537-2.894-1.295-3.442-.736-.568-1.357-.852-1.862-.852h-11.461z" fill="#000"/><path d="M371.636 63.459c0 4.988-1.041 9.24-3.125 12.755-2.084 3.515-5.104 6.157-9.061 7.924-3.936 1.769-8.641 2.653-14.113 2.653-5.473 0-10.177-.884-14.113-2.653-3.915-1.789-6.883-4.42-8.903-7.892-2.021-3.495-3.031-7.757-3.031-12.787 0-3.81.578-7.157 1.736-10.04 1.158-2.905 2.852-5.347 5.083-7.325 2.231-1.979 4.968-3.473 8.209-4.483 3.241-1.032 6.914-1.547 11.019-1.547 5.451 0 10.155.905 14.113 2.715 3.957 1.789 6.977 4.441 9.061 7.956 2.084 3.494 3.125 7.735 3.125 12.724zm-36.15.126c0 2.926.653 5.473 1.958 7.64 1.326 2.168 3.925 3.252 7.798 3.252 2.989 0 5.22-.568 6.693-1.705 1.495-1.136 2.421-2.43 2.779-3.883.379-1.473.631-3.241.757-5.304-.126-2.926-.831-5.473-2.115-7.64-1.284-2.19-3.989-3.284-8.114-3.284-6.504 0-9.756 3.641-9.756 10.924zM373.847 86.001v-45.59h14.838l13.577 17.049V40.41h14.839v45.591h-14.839l-13.577-17.049v17.05h-14.838z" fill="#000"/><path fill="#463629" d="M0 376h771v66H0z"/></g><defs><clipPath id="clip0"><path fill="#fff" d="M0 0h441v441H0z"/></clipPath><clipPath id="clip1"><path fill="#fff" d="M268.369 122.895h152v129h-152z"/></clipPath><clipPath id="clip2"><path fill="#fff" d="M274.542 315h18.915v62h-18.915z"/></clipPath><clipPath id="clip3"><path d="M235.703 337.683h13.119v43h-13.119v-43z" fill="#fff"/></clipPath><clipPath id="clip4"><path fill="#fff" d="M197.5 302h23v76h-23z"/></clipPath></defs></svg>