<svg xmlns="http://www.w3.org/2000/svg" viewBox="0 0 771 200"><defs><clipPath id="a"><path fill="#fff" d="M0 0h771v441H0z"/></clipPath><clipPath id="b"><path fill="#fff" d="M688 74h18.915v62H688z"/></clipPath></defs><g class="layer"><g clip-path="url(#a)"><path fill="#F1DDA8" d="M1-242h771v441H1z"/><path d="M28.76 55.716C16.784 54.651 12.835 52.508 1 50.732V145h773V56.473c-6.429 0-12.5-2.22-18.59-3.787-6.101-1.569-12.433-2.78-18.59-4.166-9.484-2.135-18.292-3.822-27.759-1.136-9.616 2.729-18.421 7.083-27.843 10.225-6.903 2.302-13.672 5.929-20.777 6.606-13.592 1.296-26.487 2.779-40.25 1.684-23.069-1.836-45.609 1.181-67.504-7.448-10.003-3.943-20.865-1.337-31.124-.463-4.896.417-9.456 2.215-14.384 2.272-3.027.035-6.057 0-9.085 0-9.777 0-17.971 1.306-27.464 3.45-8.084 1.827-15.436 4.71-23.175 7.575-4.362 1.614-8.767 4.032-13.206 5.301-5.04 1.441-11.898.491-16.908-.42-7.478-1.361-16.458-2.494-23.553-5.471-10.431-4.376-23.139-16.273-35.413-11.361-3.848 1.54-10.8.169-14.973.169-5.425 0-10.271 1.246-15.688.042-3.038-.676-6.881-.042-9.968-.042-6.112 0-12.226.05-18.338 0-7.577-.062-14.089-1.514-21.366-2.651-6.591-1.031-12.413-2.022-18.842-4.166-5.264-1.755-11.016-3.787-16.613-3.787-12.243 0-25.057-.218-37.264.8-12.65 1.054-24.095 5.716-36.381 8.121-6.823 1.335-14.087 1.153-20.988 2.061-9.938 1.309-20.134 1.894-30.156 1.894h-23.72c-8.786 0-17.247-1.367-25.993-1.515-13.036-.221-26.297-3.386-39.325-4.544z" fill="#DEC77B" stroke="#DEC77B" stroke-linecap="round" stroke-linejoin="round"/><g opacity=".5" fill="#463629"><path d="M426.756 132.287l-39.469-.449a.819.819 0 01-.629-.269l-3.237-3.597a.684.684 0 01-.179-.449l-3.507-19.42c-.09-.45.18-.899.629-.989.72-.27 10.34-.989 16.094-1.439.359 0 .629.09.809.36l.27.449h18.7v-.18a.864.864 0 01.809-.629l9.8-.809 16.813-.27c.269 0 .539.09.719.36.18.27.18.539.09.809l-3.596 10.789c0 .09-.09.18-.18.27l-13.216 15.194c-.18.179-.45.269-.72.269zm-39.019-2.247l38.66.45 12.946-14.745 3.147-9.35-15.464.179-9.081.72-.089.18c-.091.359-.45.629-.899.629h-19.87c-.27 0-.539-.18-.719-.36l-.36-.27c-4.855.36-11.957.899-14.385 1.169l3.237 18.341 2.877 3.057z"/><path d="M404.639 131.209h-16.812c-.54 0-.899.449-.719.899l1.348 2.247c.09.18.36.36.72.36h14.205c.269 0 .539-.179.719-.36l1.349-2.247c.089-.36-.27-.899-.81-.899zm21.128 0h-17.891c-.629 0-.989.449-.719.899l1.348 2.247c.18.18.45.36.72.36h15.104c.27 0 .63-.179.72-.36l1.348-2.247c.36-.36 0-.899-.63-.899z"/><path d="M426.576 131.658a.9.9 0 01-.898-.899l.36-25.084c0-.449.449-.899.898-.899a.9.9 0 01.899.899l-.359 25.174c0 .45-.45.809-.9.809z"/><path d="M440.153 117.183c-.899 0-7.553-1.348-13.127-2.517a.932.932 0 01-.719-1.079c.09-.539.539-.809 1.079-.719 4.495.989 11.958 2.517 12.677 2.517.449-.09.899.36.899.809.09.54-.27.899-.809.989zM387.647 131.568c-.09 0-.27 0-.36-.089-.449-.18-.719-.72-.539-1.17l9.44-23.285c.18-.45.72-.72 1.169-.54.45.18.719.72.54 1.169l-9.441 23.286c-.18.36-.449.629-.809.629zM425.857 123.656c-.359 0-.629-.179-.809-.449-3.596-6.653-7.822-14.116-8.721-15.105a.855.855 0 01-.359-.899.932.932 0 011.079-.719c.539.09 1.078.18 9.619 15.824.27.449.09.989-.359 1.258-.09.09-.27.09-.45.09z"/><path d="M384 128l-3-19.5v-.5l15-1.5 1.5 1h19l4.5-1.5 22.5-.5-3.5 11-13 15h-36.5L384 128z" fill-opacity=".9"/></g><g clip-path="url(#b)" fill="#463629" opacity=".9"><path d="M705.096 135.848c-.981 0-1.636-.319-1.636-.796v-19.497c0-.477.655-.796 1.636-.796.983 0 1.637.319 1.637.796v19.497c0 .477-.655.796-1.637.796zM689.636 135.811c-.981 0-1.636-.318-1.636-.796v-19.496c0-.478.655-.797 1.636-.797.983 0 1.638.319 1.638.797v19.496c0 .478-.655.796-1.638.796z"/><path d="M704.636 124.025h-4.006c-1.002 0-1.037-.854-1.037-2.136 0-1.281.035-2.135 1.037-2.135h4.006c1.001 0 1.059.854 1.059 2.135 0 1.282-.057 2.136-1.059 2.136zm-10.684 0h-3.673c-1.001 0-1.059-.854-1.059-2.136 0-1.281.058-2.135 1.059-2.135h3.673c1.001 0 1.065.854 1.065 2.135 0 1.282-.231 2.136-1.065 2.136z"/><path d="M700.88 135.811h-4.007c-1.002 0-1.67-.378-1.67-.944v-12.556h-1.168c-1.002 0-1.67-.378-1.67-.944v-9.536c0-1.604 2.338-2.926 5.009-2.926 1.336 0 2.671.283 3.673.85 1.002.566 1.503 1.227 1.503 2.077v23.035c0 .566-.835.944-1.67.944zm-1.67-1.888v-22.091c0-.284-.167-.473-.501-.661-.334-.189-.835-.284-1.169-.284-1.001 0-1.669.472-1.669 1.039v8.496h1.169c1.002 0 2.392.204 2.392.771l.366 12.293-.588.437z"/><path d="M697.373 114.722c-1.541 0-2.825-.778-2.825-2.669V95.026c0-1.892 1.369-3.574 2.91-3.574 1.54 0 2.91 1.682 2.91 3.574v17.026c0 1.892-1.283 2.67-2.995 2.67z"/><path d="M697.235 95.816c-.994 0-1.656-.76-1.656-1.899V76.259c0-1.139.662-1.898 1.656-1.898.993 0 1.655.759 1.655 1.898v17.658c.001 1.139-.661 1.899-1.655 1.899z"/><path d="M700.051 77.589h-5.963a1.312 1.312 0 01-.571-.129 1.476 1.476 0 01-.485-.37 1.763 1.763 0 01-.323-.555 1.96 1.96 0 01-.112-.655c0-.95.663-1.709 1.491-1.709h5.963c.828 0 1.49.759 1.49 1.709 0 .949-.662 1.709-1.49 1.709zM694.184 135.811v-23.184l-.364-.813h6.911l.364 23.997h-6.911z"/></g><g opacity=".8" fill="#564532"><path d="M643.857 138.894c-.681 0-1.135-.22-1.135-.552v-13.521c0-.332.454-.553 1.135-.553s1.136.221 1.136.553v13.521c0 .331-.455.552-1.136.552zM633.135 138.869c-.681 0-1.135-.221-1.135-.552v-13.522c0-.331.454-.552 1.135-.552s1.135.221 1.135.552v13.522c0 .331-.454.552-1.135.552z"/><path d="M643.538 130.694h-2.779c-.695 0-.719-.592-.719-1.48 0-.889.024-1.481.719-1.481h2.779c.694 0 .734.592.734 1.481 0 .888-.04 1.48-.734 1.48zm-7.41 0h-2.547c-.695 0-.735-.592-.735-1.48 0-.889.04-1.481.735-1.481h2.547c.695 0 .739.592.739 1.481 0 .888-.16 1.48-.739 1.48z"/><path d="M640.933 138.869h-2.779c-.695 0-1.158-.262-1.158-.655v-8.708h-.811c-.695 0-1.158-.262-1.158-.655v-6.613c0-1.113 1.622-2.03 3.474-2.03.927 0 1.853.197 2.548.59.695.392 1.042.851 1.042 1.44v15.976c0 .393-.579.655-1.158.655zm-1.158-1.31v-15.321c0-.196-.116-.328-.347-.458-.232-.131-.58-.197-.811-.197-.695 0-1.158.327-1.158.72v5.893h.81c.695 0 1.659.142 1.659.534l.255 8.527-.408.302z"/><path d="M638.5 124.243c-1.068 0-1.959-.54-1.959-1.852v-11.809c0-1.312.95-2.478 2.018-2.478 1.069 0 2.019 1.166 2.019 2.478v11.809c0 1.312-.89 1.852-2.078 1.852z"/><path d="M638.405 111.13c-.689 0-1.149-.526-1.149-1.317V97.567c0-.79.459-1.317 1.149-1.317.689 0 1.148.527 1.148 1.317v12.246c0 .791-.459 1.317-1.148 1.317z"/><path d="M640.358 98.489h-4.136a.916.916 0 01-.396-.089 1.026 1.026 0 01-.336-.257 1.21 1.21 0 01-.224-.385 1.317 1.317 0 01-.077-.454c0-.659.459-1.186 1.033-1.186h4.136c.574 0 1.034.527 1.034 1.186 0 .658-.46 1.185-1.034 1.185zM636.289 138.869V122.79l-.252-.564h4.793l.252 16.643h-4.793z"/></g><path d="M305.538 134.71c-1.868 0-3.115-.606-3.115-1.515V96.089c0-.909 1.247-1.515 3.115-1.515 1.87 0 3.116.606 3.116 1.515v37.106c0 .909-1.247 1.515-3.116 1.515zM276.114 134.64c-1.868 0-3.114-.606-3.114-1.515V96.019c0-.909 1.246-1.515 3.115-1.515 1.869 0 3.115.606 3.115 1.515v37.106c0 .909-1.246 1.515-3.116 1.515z" fill="#463629"/><path d="M304.662 112.208h-7.625c-1.907 0-1.972-1.625-1.972-4.064 0-2.438.065-4.063 1.972-4.063h7.625c1.906 0 2.015 1.625 2.015 4.063 0 2.439-.109 4.064-2.015 4.064zm-20.334 0h-6.99c-1.906 0-2.015-1.625-2.015-4.064 0-2.438.109-4.063 2.015-4.063h6.99c1.906 0 2.027 1.625 2.027 4.063 0 2.439-.439 4.064-2.027 4.064z" fill="#463629"/><path d="M297.514 134.64h-7.627c-1.906 0-3.177-.718-3.177-1.796v-23.898h-2.225c-1.907 0-3.177-.718-3.177-1.796V89.002c0-3.054 4.45-5.57 9.533-5.57 2.542 0 5.084.539 6.991 1.617 1.907 1.078 2.86 2.336 2.86 3.953v43.841c0 1.078-1.589 1.797-3.178 1.797zm-3.178-3.594V89.002c0-.539-.319-.899-.953-1.258-.636-.359-1.59-.539-2.225-.539-1.907 0-3.178.898-3.178 1.976v16.171h2.224c1.907 0 4.553.389 4.553 1.466l.698 23.398-1.119.83z" fill="#463629"/><path d="M290.838 94.504c-2.932 0-5.376-1.481-5.376-5.081V57.016c0-3.6 2.605-6.8 5.538-6.8 2.932 0 5.538 3.2 5.538 6.8v32.406c.002 3.601-2.441 5.082-5.7 5.082z" fill="#463629"/><path d="M290.576 58.52c-1.891 0-3.152-1.445-3.152-3.613V21.3c0-2.168 1.26-3.614 3.151-3.614 1.892 0 3.152 1.446 3.152 3.614v33.607c.001 2.168-1.26 3.613-3.152 3.613h.001z" fill="#463629"/><path d="M295.936 23.83h-11.349a2.51 2.51 0 01-1.088-.244 2.84 2.84 0 01-.922-.705 3.308 3.308 0 01-.614-1.057 3.644 3.644 0 01-.213-1.247c0-1.806 1.261-3.252 2.837-3.252h11.349c1.575 0 2.836 1.446 2.836 3.252 0 1.808-1.26 3.253-2.837 3.253h.001zM284.769 134.64V90.516l-.692-1.548h13.154l.692 45.672h-13.154z" fill="#463629"/><path d="M30.5 137.5v-56l36-1L82 61l17.5-15 24.5-9.5h33.5l32 14.5L217 81.5h32.5v56h-219z" fill="#554531"/><path d="M150.763 91.792c-7.972 0-14.495 6.523-14.495 14.495v36.961c0 .725.363 1.087 1.088 1.087h26.451c.725 0 1.086-.361 1.086-1.086v-36.962c.364-7.972-6.157-14.495-14.13-14.495z" fill="#463629"/><path d="M230.48 146.87h-51.453c-2.175 0-3.625-1.449-3.625-3.624v-36.598c0-13.77-11.232-24.639-24.639-24.639s-24.64 11.232-24.64 24.64v36.597c0 2.174-1.449 3.624-3.623 3.624H54.016c-1.812 0-3.624-1.449-3.624-3.624v-5.072c0-1.813 1.813-3.625 3.624-3.625 2.174 0 3.623 1.812 3.623 3.625v1.087h61.6v-32.974c0-17.755 14.495-31.886 31.887-31.886 17.393 0 31.886 14.494 31.886 31.886v32.975h44.206c0-59.065-38.046-99.647-84.789-99.647-28.988 0-55.44 11.233-71.02 41.67-1.088 1.812-3.262 2.537-4.71 1.45-1.813-1.088-2.537-3.262-1.45-4.711 17.03-33.336 46.019-45.656 77.543-45.656 50.728 0 92.037 44.206 92.037 107.256v3.622c-.725 1.812-2.537 3.624-4.349 3.624z" fill="#463629"/><path d="M179.027 146.87h-56.528c-2.174 0-3.623-1.449-3.623-3.624v-36.598c0-17.756 14.495-31.886 31.887-31.886 17.393 0 31.885 14.495 31.885 31.887v36.597c0 1.812-1.448 3.624-3.622 3.624h.001zm-52.904-7.247h49.28V106.65c0-13.769-11.233-24.64-24.64-24.64s-24.64 11.234-24.64 24.64v32.975h-.001l.001-.002zm-72.108 2.174H29.738c-2.175 0-3.624-1.449-3.624-3.623v-58.34c0-2.174 1.45-3.624 3.623-3.624h37.686c1.087 0 2.537.725 3.262 1.813a3.29 3.29 0 010 3.622c-8.697 17.032-13.408 36.598-13.408 56.527.362 2.175-1.45 3.625-3.262 3.625zm-20.654-7.247h16.67c.724-18.118 4.71-35.51 11.594-51.091H33.362v51.091zm215.598 7.247h-18.843c-1.811 0-3.622-1.449-3.622-3.623 0-20.293-4.71-39.86-13.407-56.89-.726-1.087-.364-2.535 0-3.622.724-1.088 1.81-1.813 3.26-1.813h32.611c2.174 0 3.624 1.449 3.624 3.624v58.337c.002 2.537-1.448 3.987-3.623 3.987zm-15.218-7.248h11.595V83.458h-23.19c7.247 15.58 11.233 33.336 11.595 51.091z" fill="#463629"/><path d="M121.05 108.098H61.263c-2.174 0-3.624-1.449-3.624-3.623 0-2.174 1.45-3.623 3.624-3.623h59.787c2.174 0 3.623 1.449 3.623 3.623 0 2.174-1.449 3.623-3.623 3.623zm101.82-.724h-42.757c-2.174 0-3.623-1.45-3.623-3.623 0-2.175 1.45-3.625 3.623-3.625h42.757c2.175 0 3.625 1.45 3.625 3.625 0 2.173-1.45 3.623-3.625 3.623z" fill="#463629"/><path d="M59.813 102.3H31.912c-2.174 0-3.624-1.449-3.624-3.623 0-2.174 1.45-3.623 3.624-3.623h27.901c2.175 0 3.624 1.449 3.624 3.624 0 2.173-1.45 3.622-3.624 3.622zM1 134h771v66H1z" fill="#463629"/></g></g></svg>